<?xml version="1.0" encoding="utf-8"?>
<!-- Generator: Adobe Illustrator 24.0.1, SVG Export Plug-In . SVG Version: 6.00 Build 0)  -->
<svg version="1.1" id="Layer_1" xmlns="http://www.w3.org/2000/svg" xmlns:xlink="http://www.w3.org/1999/xlink" x="0px" y="0px"
	 viewBox="0 0 4000 4000" style="enable-background:new 0 0 4000 4000;" xml:space="preserve">
<style type="text/css">
	.st0{fill:#FFFFFF;}
	.st1{opacity:0.35;}
	.st2{fill:#371A45;}
	.st3{fill:#C0C0C0;}
	.st4{fill:#AFB2B1;}
	.st5{opacity:0.2;}
	.st6{fill:#FCE85B;}
	.st7{fill:#220F2D;}
	.st8{opacity:0.5;}
	.st9{opacity:0.4;}
	.st10{fill:#FFDA22;}
	.st11{opacity:0.6;}
	.st12{fill:#FFAA00;}
</style>
<g>
	<g>
		<g>
			<g>
				<path class="st0" d="M1779.88,2340.32c0,0-17.04,121.83-113.31,225.38c-73.35,78.9-191.77,84.26-182.91,158.62h599.51
					L1779.88,2340.32z"/>
			</g>
		</g>
		<g>
			<g>
				<path class="st0" d="M2083.16,2724.32h-599.48c-8.87-74.37,109.53-79.73,182.88-158.62c45.48-48.95,73.32-101.96,89.97-144.29
					c12.35-31.32,18.57-56.77,21.36-70.35c1.45-6.92,1.99-10.75,1.99-10.75l87.01,110.18l24.48,30.99l178.68,226.26L2083.16,2724.32
					z"/>
			</g>
		</g>
		<g class="st1">
			<g>
				<path class="st2" d="M2083.16,2724.32h-422.94c32.37-16.98,61.4-44.91,97.22-67.74c56.09-35.76,61.2-129.04,51.99-160.7
					L2083.16,2724.32z"/>
			</g>
		</g>
		<g>
			<g>
				<path class="st2" d="M2083.17,2738.8h-599.51c-7.34,0-13.51-5.49-14.38-12.77c-6.34-53.24,39.35-77.14,87.72-102.45
					c32.83-17.18,70.05-36.64,98.97-67.75c91.8-98.74,109.41-216.36,109.58-217.54c0.82-5.74,4.97-10.44,10.56-11.95
					c5.6-1.5,11.56,0.45,15.14,5l303.29,384c3.44,4.36,4.09,10.3,1.67,15.29C2093.78,2735.63,2088.72,2738.8,2083.17,2738.8z
					 M1498.3,2709.84h554.97l-265.68-336.38c-11.47,44.03-40.84,127.26-110.42,202.1c-32.31,34.75-71.86,55.44-106.76,73.7
					C1528.63,2671.12,1502.52,2685.98,1498.3,2709.84z"/>
			</g>
		</g>
		<g>
			<g>
				<path class="st0" d="M3183.14,2042.03c-12.09,24.73-40.37,40.55-83.82,40.81c-55.18,0.29-56.38,7.82-56.01,9.49
					c0.07,0.22,0.14,0.33,0.14,0.33s9.45,14.74,22.23,39c0.04,0.07,0.07,0.18,0.11,0.25c0.54,0.98,1.09,1.99,1.63,3.04
					c0.04,0.11,0.07,0.18,0.15,0.29c38.38,73.9,102.79,228,37.51,330.97c-79.98,126.07-446.65,188.06-574.21,221.48
					c-104.64,27.44-298.56,39.54-460.81,20.06c-35.63-4.27-69.7-10.07-100.98-17.56c-101.85-24.37-151.2-151.24-174.16-245.81
					c-9.85-40.62-14.81-75.27-17.02-93.31c-1.01-8.47-1.41-13.29-1.41-13.29s269.71-229.55,647.6-253.81
					c61.91-3.98,126.69-2.43,193.67,6.52c114.99,15.39,188.28,45.22,188.28,45.22c17.89-51.6-42.07-133.31-5.11-207.1
					c43.45-86.75,307.58-109.24,376.12,32.41C3191.97,1991.85,3193.78,2020.38,3183.14,2042.03z"/>
			</g>
		</g>
		<g>
			<g>
				<path class="st0" d="M3065.79,2131.9c0.54,0.98,1.09,1.99,1.63,3.04C3066.73,2133.92,3066.22,2132.95,3065.79,2131.9z"/>
			</g>
		</g>
		<g class="st1">
			<g>
				<path class="st2" d="M3183.14,2042.03c-12.09,24.73-40.37,40.55-83.82,40.81c-55.18,0.29-56.38,7.82-56.01,9.49
					c-24.01-35.45-56.16-72.63-56.16-72.63s22.92-4.85,77.01,25.42C3094.32,2061.98,3156.02,2073.82,3183.14,2042.03z"/>
			</g>
		</g>
		<g class="st1">
			<g>
				<path class="st2" d="M3105.07,2466.2c-227.38,211.91-814.33,293.54-1135.99,224c-86.83-20.79-135.48-116.03-162.16-202.26
					c-8.44-27.27-26.23-50.49-50.01-66.28l-0.37-0.25c13.54-38.91,23.3-59.91,19.95-83.64c0,0,269.71-229.55,647.6-253.81
					c-94.9,309.76-343.28,493.76-615.41,367.47c28.68,72.34,74.48,141.24,146.75,158.51c173.83,41.6,434.23,30.96,561.79-2.5
					c41.75-10.93,45.33-312.54,88.6-249.25c209.6,306.71,464.39,96.27,493.36,47.29c24.84-42,22.12-98.27,19.81-141.39
					C3137.33,2331.8,3142.4,2407.36,3105.07,2466.2z"/>
			</g>
		</g>
		<g>
			<g>
				<path class="st2" d="M1838.54,2557.2c14.39,23.55,29.57,46.35,47.83,65.78c9.03,9.77,18.8,18.63,29.11,26.46
					c10.34,7.81,21.54,14.1,33.13,19.04c11.75,4.97,23.4,7.71,37.28,10.3l20.04,4l20.26,3.18c26.97,4.46,54.28,7.3,81.59,10.04
					c109.38,9.63,220.64,8.62,329.58-5.52c27.14-3.76,54.28-8.07,80.52-14.59l9.91-2.34l10.25-2.61l20.43-4.96l40.74-9.44
					c54.24-12.35,108.25-24.69,161.71-38.84c53.43-14.16,106.42-29.81,157.76-49.12c25.64-9.69,50.86-20.31,75.03-32.58
					c24.11-12.28,47.3-26.21,67.39-42.95c5.23-4.01,9.59-8.69,14.33-13.08c2.29-2.25,4.22-4.73,6.36-7.07
					c2.13-2.35,4.22-4.72,5.9-7.31c1.78-2.54,3.64-4.99,5.38-7.58l4.7-8.26c1.68-2.69,2.99-5.59,4.27-8.5
					c1.27-2.92,2.73-5.74,3.86-8.72c9.13-23.83,13.08-49.89,12.52-76.26c-0.22-26.38-4.65-52.98-11.03-79.11
					c-6.56-26.14-15.3-51.9-25.67-77.05c-10.31-25.17-22.21-49.8-35.31-73.68c-3.26-5.98-6.66-11.87-10.1-17.69l-2.6-4.32l-1.3-2.12
					l-0.65-1.04l-0.3-0.48c0.55,0.77-0.82-0.87-1.94-4.12c-0.77-2.53-0.76-4.37-0.6-6.52c0.21-1.67,0.73-3.52,1.37-4.95
					c0.53-1.11,1.18-2.2,1.9-3.2c0.84-1.18,1.17-1.39,1.81-2.08c0.57-0.57,1.18-1.11,1.8-1.62c0.52-0.41,0.9-0.64,1.37-0.96
					c0.83-0.54,1.97-1.27,2.6-1.55c3.01-1.5,5.35-2.21,7.64-2.88c8.67-2.25,15.94-2.87,23.38-3.53c7.32-0.51,14.55-0.83,21.68-0.92
					c7.51-0.01,13.3-0.49,19.76-0.73c6.12-0.93,12.42-1.46,18.15-3.24c11.66-3.02,22.28-8.17,30.01-15.69
					c7.76-7.46,12.6-17.2,14.22-28.22c1.67-11,0.15-23.03-3.39-34.76c-1.03-2.92-1.76-5.9-3-8.78l-3.74-8.65
					c-1.31-2.85-2.97-5.52-4.42-8.31l-2.24-4.14l-2.64-3.89c-6.66-10.66-15.4-19.9-24.8-28.37c-19.06-16.83-42.62-28.75-67.49-36.9
					c-25.04-7.86-51.46-12.16-78.05-12.93c-6.64-0.4-13.3-0.08-19.95-0.11c-6.64,0.41-13.3,0.5-19.91,1.27
					c-13.25,1.09-26.38,3.27-39.26,6.16c-12.91,2.82-25.47,6.79-37.45,11.69c-11.95,4.92-23.36,10.9-33.16,18.28l-6.97,5.79
					c-2.01,2.12-4.2,4.15-6.12,6.29c-1.63,2.28-3.68,4.39-5.07,6.74c-1.3,2.49-2.9,4.38-4.07,7.35
					c-5.22,10.94-8.15,22.82-9.26,35.18c-2.17,24.86,3.48,51.01,9.89,77.82c3.17,13.5,6.63,27.27,8.78,42.09
					c2.03,14.66,3.18,31.11-2.57,48.06c-2.55,7.52-10.72,11.56-18.25,9l-0.58-0.21l-0.32-0.12c-9.74-3.82-20.63-7.47-31.17-10.8
					c-10.63-3.39-21.42-6.43-32.22-9.38c-21.65-5.78-43.56-10.77-65.6-15.01c-22.05-4.23-44.25-7.83-66.57-10.29l-33.47-3.66
					l-33.61-2.17c-44.85-2.15-89.83-1.42-134.62,2.27c-44.77,3.91-89.27,10.86-133.22,20.38c-87.85,19.21-173.69,48.62-254.71,88.07
					c-81.08,39.49-158.06,85.94-235.76,132.92l-0.16,0.1c-2.3,1.39-5.29,0.65-6.68-1.65c-1.14-1.89-0.84-4.25,0.57-5.8
					c15.81-17.26,33.22-32.38,51.31-46.74c9-7.23,18.33-14,27.66-20.8c9.49-6.54,18.94-13.17,28.68-19.33
					c38.7-25.11,79.61-46.68,121.48-65.96c83.73-38.52,171.12-69.65,261.45-89.1c45.12-9.78,90.85-16.92,136.9-20.94
					c46.07-3.8,92.39-4.56,138.58-2.34l34.62,2.24l34.49,3.77c22.99,2.53,45.81,6.24,68.52,10.59c22.71,4.37,45.27,9.5,67.65,15.48
					c11.18,3.05,22.33,6.2,33.41,9.72c11.18,3.55,21.93,7.1,33.4,11.61l-19.15,8.66c3.38-9.57,3.12-21.79,1.26-34.47
					c-1.82-12.71-5.1-25.97-8.29-39.51c-6.37-27.05-13.14-56.1-10.56-86.98c1.34-15.32,5.14-30.84,11.91-45.02
					c1.41-3.51,3.98-7.27,6.04-10.86c2.21-3.59,4.95-6.61,7.45-9.9c2.7-3.03,5.59-5.78,8.41-8.65c2.97-2.59,6.03-5.03,9.06-7.53
					c12.44-9.36,25.9-16.31,39.61-21.98c13.74-5.63,27.8-10.03,42.05-13.16c14.23-3.2,28.61-5.56,43.06-6.77
					c7.21-0.83,14.47-0.96,21.7-1.38c7.25,0.01,14.5-0.31,21.74,0.11c28.98,0.86,57.95,5.5,85.97,14.3
					c27.86,9.12,54.99,22.66,77.74,42.71c11.22,10.06,21.74,21.28,29.89,34.21c8.32,12.82,15.2,26.39,19.56,41.29
					c4.44,14.79,6.78,30.96,4.31,47.5c-2.31,16.46-10.35,32.96-22.73,44.7c-12.3,11.9-27.67,18.95-42.78,22.88
					c-7.61,2.27-15.23,3-22.85,4.07c-7.43,0.36-15.52,0.86-21.91,0.85c-6.76,0.08-13.44,0.39-19.98,0.84
					c-6.39,0.52-13.02,1.29-17.82,2.55c-1.05,0.3-2.02,0.67-2.13,0.72c-0.17,0.05,0.29-0.11,0.37-0.22l0.28-0.24
					c0.3-0.21,0.59-0.46,0.85-0.73c0.35-0.36,0.28-0.35,0.93-1.13c0.49-0.64,0.91-1.36,1.21-2.1c0.49-1.02,0.92-2.44,1.01-3.7
					c0.19-1.72,0.11-3.1-0.48-5.23c-1.03-2.81-2.09-4.12-1.33-2.97l0.39,0.63l0.73,1.17l1.42,2.32l2.77,4.61
					c3.64,6.15,7.18,12.3,10.58,18.52c13.64,24.86,25.97,50.38,36.74,76.66c10.81,26.25,20.01,53.27,26.98,81.06
					c6.78,27.82,11.61,56.44,11.88,85.72c0.6,29.17-3.7,59.1-14.53,87.25c-1.34,3.51-3.04,6.9-4.56,10.35
					c-1.52,3.45-3.1,6.88-5.08,10.11l-5.63,9.85c-2.12,3.19-4.43,6.3-6.66,9.44c-2.16,3.24-4.65,6.09-7.17,8.9
					c-2.53,2.8-4.93,5.79-7.59,8.42c-5.42,5.1-10.63,10.55-16.43,15.03c-22.68,18.86-47.53,33.64-72.91,46.59
					c-25.43,12.9-51.53,23.88-77.89,33.84c-52.77,19.83-106.57,35.71-160.61,50.03c-54.05,14.3-108.46,26.74-162.65,39.07
					l-40.51,9.38l-20.09,4.88l-9.96,2.53l-10.38,2.47c-27.74,6.88-55.61,11.28-83.52,15.16c-55.83,7.26-111.84,11.18-167.91,12.56
					c-56.07,1.39-112.26,0.36-168.31-4.78c-28.03-2.54-56.01-5.94-83.84-10.94l-20.85-3.83l-20.74-4.7
					c-13.4-2.71-28.8-7.06-42.38-13.65c-27.69-12.87-50.08-33.88-67.51-56.95c-17.53-23.22-30.31-49.04-39.89-75.57
					c-0.91-2.52,0.4-5.3,2.92-6.21c2.2-0.8,4.61,0.1,5.78,2.03L1838.54,2557.2z"/>
			</g>
		</g>
		<g>
			<g>
				<path class="st3" d="M1913.43,2904.58l508.92-156.91c23.55-5.94,40.11-27.04,40.27-51.33l0,0l-864.2-6.46l0.01,222.63
					l227.85,2.42C1855.66,2915.24,1884.95,2911.76,1913.43,2904.58z"/>
			</g>
		</g>
		<g class="st1">
			<g>
				<path class="st2" d="M2460.49,2710.9c-5.2,17.83-19.45,32.08-38.12,36.76l-508.94,156.92c-28.46,7.17-57.76,10.66-87.15,10.34
					l-227.86-2.42l14.37-31.07l227.86,3.88c29.36,0.52,58.66-2.78,87.21-9.79l509.95-152.69
					C2446.47,2720.72,2454.19,2716.55,2460.49,2710.9z"/>
			</g>
		</g>
		<g>
			<g>
				<path class="st2" d="M1829.92,2927.45c-1.25,0-2.5-0.01-3.76-0.02l-240.22-2.55l-0.01-247.59l889.28,6.65l-0.08,12.49
					c-0.2,29.86-20.49,55.84-49.38,63.29l-509.26,156.99C1888.2,2923.84,1859.09,2927.45,1829.92,2927.45z M1913.43,2904.58h0.05
					H1913.43z M1610.94,2900.14l215.49,2.29c28.24,0.34,56.32-3.03,83.64-9.89l509.23-156.98c13.83-3.49,24.51-13.81,28.79-26.82
					l-837.16-6.26L1610.94,2900.14z"/>
			</g>
		</g>
		<g>
			<g>
				<path class="st3" d="M1899.15,2851.47l560.76-154.51c0.37-0.09,0.31-0.64-0.07-0.64l-861.41-10.78v174.61h224.14
					C1848.34,2860.17,1874.03,2857.25,1899.15,2851.47z"/>
			</g>
		</g>
		<g>
			<g>
				<path class="st4" d="M1794.95,2814.47l359.35-78.01c5.81-1.06,5.04-9.61-0.87-9.61l-433.58-3.23v101.88L1794.95,2814.47z"/>
			</g>
		</g>
		<g>
			<g>
				<path class="st2" d="M1707.36,2839.97v-128.94l446.17,3.32c8.95,0,16.37,6.79,17.19,15.79c0.81,9-5.28,17.01-14.17,18.63
					l-359.78,78.08L1707.36,2839.97z M1794.96,2814.47h0.05H1794.96z M1732.36,2736.22v74.81l60.36-8.86l291.74-63.33
					L1732.36,2736.22z M2153.33,2739.35c0.03,0,0.07,0,0.1,0H2153.33z M2151.66,2724.25c-0.13,0.02-0.27,0.05-0.4,0.09
					L2151.66,2724.25z"/>
			</g>
		</g>
		<g>
			<g>
				<path class="st2" d="M1822.57,2872.67h-236.64V2672.9l885.13,11.07l1.52,11.29c0.69,6.32-3.34,12.16-9.44,13.78l-561.19,154.61
					C1875.95,2869.64,1849.25,2872.67,1822.57,2872.67z M1899.15,2851.47h0.05H1899.15z M1610.93,2847.67h211.64
					c24.7,0,49.44-2.8,73.52-8.32l477.62-131.6l-762.77-9.54V2847.67z M2459.6,2708.83c0.05,0,0.1,0,0.15,0L2459.6,2708.83z"/>
			</g>
		</g>
		<g>
			<g>
				<path class="st2" d="M2812.21,2122.62c9.96,4.03,18.6,8.52,27.36,13.6c8.71,4.98,17.05,10.51,25.22,16.27
					c16.32,11.56,31.36,24.89,45.49,38.99c14.22,14.02,27.03,29.49,38.49,45.75l8.3,12.38c2.57,4.26,5.02,8.6,7.41,12.94l3.6,6.47
					l3.17,6.73c2.14,4.45,4.12,8.97,6.1,13.45c0.47,1.05-0.01,2.28-1.06,2.74c-0.88,0.39-1.88,0.12-2.45-0.59l-0.08-0.1
					c-12.27-15.12-24.39-29.81-38.21-42.94c-13.52-13.32-27.66-25.84-42.61-37.31c-14.84-11.59-30.34-22.23-45.94-32.62
					c-3.99-2.46-7.86-5.09-11.79-7.65l-11.87-7.48l-23.51-14.45l-0.66-0.41c-6.82-4.19-8.95-13.12-4.76-19.94
					C2798.18,2122.34,2805.77,2120,2812.21,2122.62z"/>
			</g>
		</g>
		<g>
			<g>
				<path class="st2" d="M2983.23,2015.52c8.63,3.85,16.05,9,23.12,14.48c7.12,5.45,13.39,11.7,19.65,18.03
					c6.18,6.4,12.1,13.08,17.62,20.18c5.41,7.19,10.59,14.69,14.71,23.05c3.06,6.21,0.5,13.72-5.71,16.77
					c-5.66,2.79-12.4,0.91-15.86-4.15l-0.1-0.15c-9.18-13.39-18.48-27.54-27.87-41.88c-4.63-7.24-9.56-14.29-13.82-21.99
					C2990.65,2032.21,2986.49,2024.37,2983.23,2015.52z"/>
			</g>
		</g>
		<g>
			<g>
				<path class="st0" d="M2320.08,1859.05c58.03-51.03,329.6-71.36,455.28,7.84c115.43,72.75,145.08,310.18,74.95,294.72
					c-157.59-34.76-282.39-50.43-515.13-9.83C2185.04,2172.65,2262.06,1910.08,2320.08,1859.05z"/>
			</g>
		</g>
		<g class="st1">
			<g>
				<path class="st2" d="M2850.32,2161.66c-157.61-34.76-282.38-50.44-515.12-9.85c-80.31,11.19-95.62-58.76-83.64-134.04
					c8.62,37.91,33.42,62.64,83.64,55.65c69.49-12.13,167.42-165.04,167.42-165.04s4.16,125.86,53.37,150.79
					c61.77,31.3,209.13,5.27,294.33,24.05c17.05,3.77,28.17-7.42,33.64-27.52C2894.6,2118.46,2883.92,2169.08,2850.32,2161.66z"/>
			</g>
		</g>
		<g>
			<g>
				<path class="st2" d="M2856.53,2176.85c-3.03,0-6.15-0.34-9.33-1.05c-169.1-37.3-288.48-48.27-509.52-9.71
					c-0.16,0.03-0.33,0.05-0.49,0.08c-55.92,7.77-81.08-19.93-92.35-44.53c-34.23-74.7,18.08-231.56,65.69-273.42
					c65.43-57.55,343.91-74.61,472.56,6.47c95,59.88,138.87,226.59,111.51,293.19C2886.94,2166.51,2873.1,2176.85,2856.53,2176.85z
					 M2579.6,2113.28c94.8,0,177.46,12.97,273.84,34.23c3.43,0.76,9.17,2.03,14.36-10.64c20.36-49.58-13.94-203.34-100.16-257.68
					c-121.8-76.77-386.71-54.32-437.99-9.22l0,0c-36.72,32.29-88.45,174.21-58.49,239.6c10.56,23.05,30.79,32.19,61.79,27.94
					C2429.48,2120.69,2508,2113.28,2579.6,2113.28z M2320.08,1859.1h0.05H2320.08z"/>
			</g>
		</g>
		<g>
			<g>
				<path class="st0" d="M2682.41,1932.86c-28.97,37.93-25.98,156.15,0.43,164.01c26.41,7.86,119.7,15.76,140.14-0.85
					c20.45-16.61,29.52-80.6,9.89-114.15C2813.06,1948,2703.7,1904.97,2682.41,1932.86z"/>
			</g>
		</g>
		<g class="st1">
			<g>
				<path class="st2" d="M2842.17,2051.34c-2.97,19.81-9.92,37.15-19.19,44.68c-20.46,16.62-113.73,8.73-140.16,0.87
					c-19.19-5.72-26-69.73-17.2-118.87c3.77,29.91,13.9,54.38,27.08,53.37c20.78-1.59,31.57-45.33,31.57-45.33
					s5.25,54.27,25.96,74.73c25.85,25.56,74.77,5.5,87.84-5.11C2839.49,2054.52,2840.87,2053.07,2842.17,2051.34z"/>
			</g>
		</g>
		<g>
			<g>
				<path class="st2" d="M2766.1,2115.73c-34.38,0-71.67-4.97-86.13-9.28c-8.99-2.68-15.98-11.48-20.76-26.18
					c-11.98-36.84-10.84-119.34,15.24-153.49c7.33-9.6,20.68-13.86,39.58-12.71c41.5,2.55,109.83,32.6,127.46,62.74
					c22.4,38.3,11.99,107.28-12.22,126.96C2818.35,2112.66,2793.12,2115.73,2766.1,2115.73z M2708.31,1933.9
					c-8.93,0-15.49,1.8-17.95,5.03l0,0c-19.89,26.04-23.75,99.41-12.12,135.16c3.23,9.92,6.54,12.92,7.45,13.19
					c27.32,8.14,115.39,13.65,130.98,0.97c15.75-12.8,25.31-71,7.57-101.34c-12.79-21.86-73.18-50.52-111.42-52.87
					C2711.26,1933.94,2709.75,1933.9,2708.31,1933.9z M2682.41,1932.86h0.05H2682.41z"/>
			</g>
		</g>
		<g>
			<g>
				<path class="st2" d="M2728.2,1971.93c-0.87,24.4-1.47,48.71,0.3,72.16c0.95,11.63,2.64,23.22,5.74,33.16
					c1.57,4.93,3.62,9.36,5.95,12.41c2.43,3.04,4.61,4.68,8.18,5.72l1.83,0.53c5.25,1.54,8.27,7.04,6.73,12.29
					c-1.39,4.77-6.05,7.69-10.83,7.04c-2.14-0.29-4.32-0.49-6.46-1.03c-2.08-0.77-4.33-1.35-6.25-2.49
					c-3.94-2.16-7.5-5.02-10.04-8.25c-5.35-6.41-8.08-13.44-9.94-20.14c-3.65-13.49-3.55-26.46-2.95-39.09
					c0.73-12.64,2.59-24.98,5.06-37.13c2.56-12.14,5.75-24.07,9.87-35.75c0.26-0.75,1.09-1.15,1.84-0.88
					c0.61,0.21,0.98,0.8,0.96,1.41L2728.2,1971.93z"/>
			</g>
		</g>
		<g>
			<g>
				<path class="st2" d="M2527.26,1859.98c-5.7,24.44-12.44,48.91-15.58,72.3c-0.46,2.93-0.61,5.77-0.9,8.63l-0.82,9.48l-1.59,18.99
					l-2.77,37.73c-0.79,12.5-1.25,24.94-1.28,37.1c0,12.15,0.69,24.14,2.63,35.06c2.04,10.87,5.68,20.41,11.18,25.87
					c5.3,5.55,13.91,8.21,24.65,8.76l0.53,0.03c7.99,0.41,14.13,7.21,13.73,15.2c-0.39,7.65-6.7,13.62-14.25,13.74
					c-7.44,0.11-15.33-0.37-23.35-2.78c-7.98-2.31-16.08-6.65-22.52-12.7c-6.49-6.01-11.19-13.31-14.43-20.52
					c-3.21-7.27-5.19-14.52-6.63-21.6c-2.81-14.16-3.24-27.77-3.27-41.1c-0.04-13.34,0.94-26.37,1.95-39.31
					c1.02-12.93,2.45-25.73,3.97-38.47l2.31-19.06l1.2-9.54c0.59-3.45,1.07-6.96,1.84-10.29c2.73-13.5,7.07-26.1,12.1-38.28
					c5.12-12.19,10.87-23.83,18.05-35.09c2.18-3.41,6.7-4.41,10.11-2.24c2.69,1.71,3.88,4.89,3.2,7.83L2527.26,1859.98z"/>
			</g>
		</g>
		<g>
			<g>
				<path class="st0" d="M2893.41,2586.51c-48.12,49.13-105.83,29.07-105.83,29.07s22.67-71.62,24.4-160.11
					c0.47-23.86-0.58-48.99-4.02-74.26c-21.33-156.52-142.48-247.01-142.48-247.01s64.96-64.81,149.1,6.73
					c62.53,53.19,102.5,191.54,107.64,302.33C2925.27,2507.8,2916.43,2562.98,2893.41,2586.51z"/>
			</g>
		</g>
		<g class="st1">
			<g>
				<path class="st2" d="M2893.41,2586.51c-48.12,49.13-105.83,29.07-105.83,29.07s22.67-71.62,24.4-160.11
					c10.46,25.13,24.37,50.26,36.42,45.44c17.05-6.84,13.72-66.01,15.24-84.25c0.47-5.72,18.86,25.24,23.53,75.13
					c2.86,30.27,23.06-17.05,35.05-48.52C2925.27,2507.8,2916.43,2562.98,2893.41,2586.51z"/>
			</g>
		</g>
		<g>
			<g>
				<path class="st2" d="M2816.66,2634.18c-19.24,0-32.63-4.48-33.83-4.9l-13.3-4.61l4.24-13.43
					c0.35-1.13,35.37-113.99,19.83-228.07c-20.2-148.33-135.65-236.49-136.82-237.37l-13.37-10.03l11.82-11.82
					c0.74-0.74,75.48-73.3,168.73,5.99c67.27,57.2,107.66,200.85,112.78,313.19c1.95,42.76,0.26,119.55-33,153.51
					C2873.82,2627.2,2840.68,2634.18,2816.66,2634.18z M2805.73,2604.64c17.5,2.02,49.13,0.52,77.32-28.27
					c18.41-18.8,27.66-68.12,24.75-131.92c-4.72-103.48-42.29-241.15-102.61-292.44c-52.56-44.69-95.77-29.74-116.45-17.25
					c33.95,30.18,115.93,115.12,133.55,244.51C2835.45,2475.79,2815.17,2568.79,2805.73,2604.64z"/>
			</g>
		</g>
		<g class="st5">
			<g>
				<path class="st6" d="M770.02,2131.9c0,0,729.98-661.9,733.63-661.39C1045,2040,1790,2400,1790,2400l56.08,471.65L770.02,2131.9z
					"/>
			</g>
		</g>
		<g>
			<g>
				<g>
					<path class="st0" d="M1423.03,2143.3c48.37,77.03,116.52,142.32,200.56,187.77c17.14,9.26,34.88,17.7,53.26,25.23
						c8.93,3.69,18.08,7.14,27.35,10.44c28.01,9.81,56.28,17.22,84.64,22.34c24.44,4.48,48.95,7.21,73.32,8.36
						c29.43,1.4,58.71,0.39,87.57-2.83c10.52-1.21,20.98-2.69,31.38-4.44c190.24-32.44,358.32-162.49,428.55-354.73
						c103.51-283.17-44.55-593.95-330.62-694.16c-55.11-19.26-111.37-29.41-166.96-31.01c-6.49-0.25-13.02-0.31-19.55-0.24
						c-17.44,0.08-34.79,0.97-51.99,2.68c-39.79,3.96-78.85,12.2-116.46,24.37c-37.61,12.12-73.87,28.22-108.01,47.91
						c-10.86,6.26-21.51,12.86-31.95,19.87c-15.64,10.51-30.77,21.75-45.34,33.88c-72.68,60.15-130.75,139.5-165.21,233.85
						C1314.02,1835.47,1337.74,2007.47,1423.03,2143.3z"/>
				</g>
				<g>
					<path class="st2" d="M1887.96,2399.66c-8.66,0-17.29-0.2-25.87-0.61c-24.8-1.17-49.54-3.99-73.53-8.38
						c-28.63-5.17-57.19-12.71-84.88-22.41c-10.21-3.64-19.18-7.06-27.44-10.48c-18.04-7.4-36.02-15.91-53.41-25.31
						c-82.11-44.41-151.67-109.53-201.15-188.33c-89.25-142.14-107.33-314.22-49.6-472.12c33.36-91.33,90.66-172.43,165.69-234.53
						c14.19-11.81,29.49-23.24,45.46-33.97c10.26-6.88,21.04-13.59,32.04-19.93c34.24-19.76,70.69-35.93,108.32-48.05
						c38-12.29,77.29-20.51,116.79-24.44c17.18-1.7,34.73-2.61,52.14-2.69c6.85-0.08,13.45,0,19.61,0.24
						c56.73,1.63,113.07,12.1,167.42,31.1c139.32,48.81,250.48,148.49,312.99,280.69c62.01,131.15,68.62,278.72,18.61,415.53
						c-67.88,185.81-232.56,322.13-429.78,355.76c-10.42,1.75-21,3.25-31.47,4.45C1929.31,2398.5,1908.56,2399.66,1887.96,2399.66z
						 M1424.38,2142.45c49.19,78.33,118.34,143.07,199.96,187.21c17.29,9.34,35.16,17.81,53.11,25.16
						c8.22,3.4,17.14,6.8,27.29,10.42c27.53,9.64,55.92,17.13,84.39,22.28c23.86,4.37,48.45,7.17,73.11,8.33
						c28.85,1.37,58.23,0.42,87.32-2.82c10.41-1.2,20.94-2.69,31.29-4.43c196.09-33.44,359.83-168.97,427.31-353.71
						c49.72-136,43.15-282.7-18.5-413.07c-62.14-131.42-172.64-230.52-311.15-279.04c-54.05-18.89-110.06-29.29-166.48-30.92
						c-6.13-0.24-12.67-0.31-19.48-0.24c-17.33,0.08-34.77,0.98-51.85,2.67c-39.28,3.9-78.35,12.08-116.13,24.3
						c-37.42,12.06-73.65,28.13-107.7,47.78c-10.94,6.3-21.66,12.97-31.86,19.81c-15.89,10.67-31.1,22.04-45.21,33.78
						c-74.6,61.74-131.57,142.37-164.73,233.17C1317.69,1830.1,1335.66,2001.16,1424.38,2142.45L1424.38,2142.45z"/>
				</g>
			</g>
			<g class="st1">
				<g>
					<path class="st2" d="M2409.66,2035.43c-70.21,192.26-238.32,322.33-428.56,354.74c-10.4,1.76-20.85,3.25-31.36,4.44
						c-28.87,3.23-58.15,4.22-87.57,2.85c-24.37-1.17-48.9-3.88-73.31-8.35c-28.38-5.12-56.64-12.53-84.67-22.34
						c-9.26-3.34-18.4-6.76-27.35-10.44c-18.38-7.54-36.1-16.02-53.25-25.26c-84.04-45.45-152.2-110.71-200.57-187.77
						c-26.58-42.31-47.19-88.17-61.16-136.15c47.86,72.46,113.58,133.85,193.76,177.22c17.13,9.29,34.87,17.72,53.25,25.26
						c8.91,3.69,18.06,7.12,27.35,10.44c28.03,9.81,56.29,17.22,84.64,22.35c24.45,4.45,48.94,7.19,73.31,8.35
						c29.42,1.38,58.73,0.37,87.57-2.85c10.54-1.21,20.99-2.7,31.39-4.46c190.24-32.41,358.32-162.46,428.56-354.74
						c41.01-112.16,42.5-228.63,11.63-334.62C2444.21,1691.52,2470.77,1868.29,2409.66,2035.43z"/>
				</g>
			</g>
			<g>
				<g>
					<path class="st2" d="M1887.95,2410.36c-8.82,0-17.62-0.21-26.37-0.62c-25.27-1.19-50.49-4.07-74.95-8.55
						c-29.16-5.27-58.27-12.95-86.49-22.83c-10.43-3.72-19.56-7.2-27.99-10.69c-18.37-7.53-36.68-16.21-54.41-25.78
						c-83.74-45.29-154.67-111.7-205.13-192.05c-91.03-144.96-109.47-320.46-50.59-481.49c34.01-93.11,92.42-175.79,168.92-239.1
						c14.45-12.02,30.04-23.68,46.32-34.61c10.47-7.02,21.46-13.86,32.67-20.32c34.89-20.13,72.03-36.61,110.38-48.96
						c38.71-12.52,78.75-20.9,119.02-24.9c17.52-1.74,35.4-2.66,53.15-2.74c6.95-0.09,13.73,0,20.07,0.25
						c57.73,1.67,115.15,12.33,170.55,31.69c142.06,49.77,255.39,151.41,319.13,286.22c63.25,133.76,69.99,284.26,18.99,423.78
						c-69.19,189.41-237.04,328.37-438.04,362.64c-10.62,1.79-21.39,3.31-32.05,4.53
						C1930.11,2409.19,1908.96,2410.36,1887.95,2410.36z M1433.45,2136.76c48.21,76.77,115.98,140.22,195.99,183.49
						c16.96,9.16,34.48,17.46,52.07,24.67c8.08,3.34,16.84,6.68,26.82,10.24c26.94,9.43,54.79,16.78,82.7,21.83
						c23.41,4.29,47.53,7.04,71.71,8.17c28.31,1.35,57.11,0.41,85.63-2.77c10.19-1.17,20.53-2.63,30.7-4.35
						c192.29-32.79,352.86-165.69,419.04-346.82c48.72-133.29,42.29-277.06-18.12-404.82c-60.91-128.81-169.23-225.94-305.01-273.51
						c-53-18.53-107.93-28.73-163.24-30.32c-6.05-0.23-12.43-0.31-19.05-0.23c-17.07,0.08-34.17,0.96-50.92,2.62
						c-38.52,3.83-76.84,11.85-113.89,23.83c-36.71,11.83-72.25,27.6-105.65,46.87c-10.74,6.18-21.24,12.72-31.24,19.43
						c-15.58,10.47-30.49,21.61-44.32,33.12c-73.16,60.55-129.01,139.59-161.52,228.61
						C1328.89,1830.64,1346.5,1998.29,1433.45,2136.76L1433.45,2136.76z"/>
				</g>
			</g>
			<g>
				<g>
					<path class="st2" d="M1887.95,2413.93c-8.88,0-17.73-0.21-26.54-0.63c-25.43-1.2-50.81-4.09-75.42-8.6
						c-29.33-5.3-58.63-13.03-87.03-22.98c-10.5-3.74-19.69-7.25-28.17-10.76c-18.47-7.57-36.9-16.31-54.74-25.94
						c-84.28-45.58-155.67-112.42-206.46-193.29l0,0c-91.62-145.9-110.18-322.54-50.92-484.61c34.23-93.71,93.01-176.91,170-240.63
						c14.53-12.09,30.23-23.82,46.61-34.82c10.53-7.07,21.6-13.95,32.88-20.45c35.11-20.26,72.48-36.83,111.07-49.27
						c38.95-12.6,79.24-21.03,119.76-25.05c17.63-1.75,35.63-2.68,53.49-2.76c6.99-0.09,13.82,0,20.22,0.25
						c58.06,1.67,115.84,12.4,171.59,31.88c142.97,50.09,257.03,152.39,321.18,288.07c63.66,134.63,70.45,286.11,19.11,426.53
						c-69.63,190.61-238.54,330.44-440.79,364.93c-10.69,1.8-21.52,3.33-32.24,4.56
						C1930.39,2412.75,1909.09,2413.93,1887.95,2413.93z M1436.47,2134.86c47.88,76.25,115.2,139.27,194.67,182.25
						c16.84,9.09,34.25,17.34,51.73,24.51c8.03,3.32,16.74,6.64,26.66,10.18c26.75,9.36,54.41,16.66,82.14,21.67
						c23.26,4.26,47.22,6.99,71.24,8.12c28.11,1.34,56.72,0.41,85.06-2.75c10.11-1.16,20.4-2.62,30.51-4.32
						c191.02-32.57,350.54-164.59,416.27-344.53c48.39-132.39,42-275.18-18-402.07c-60.5-127.94-168.09-224.42-302.97-271.67
						c-52.65-18.4-107.21-28.54-162.17-30.12c-6.03-0.23-12.33-0.31-18.91-0.23c-16.98,0.08-33.97,0.95-50.6,2.6
						c-38.26,3.8-76.33,11.77-113.14,23.68c-36.48,11.75-71.78,27.42-104.96,46.56c-10.67,6.15-21.11,12.64-31.04,19.3
						c-15.48,10.4-30.29,21.47-44.03,32.9c-72.68,60.15-128.15,138.67-160.45,227.09
						C1332.62,1830.82,1350.12,1997.33,1436.47,2134.86L1436.47,2134.86z"/>
				</g>
			</g>
			<g>
				<g>
					<path class="st2" d="M1511.97,2250.92c334.99,201.96,764.24,15.99,765.35-369.01c0.76-261.93-258.44-463.1-513.3-445.94
						c-185.5,12.48-361.63,104.74-422.72,394.13c0,0-7.03,132.09,34.01,217.16c41.05,85.07,95.56,160.87,95.56,160.87
						L1511.97,2250.92z"/>
				</g>
			</g>
			<g>
				<g>
					<path class="st7" d="M2277.31,1881.92c-1.1,384.99-430.36,570.95-765.34,369.02l-8.32-8.68
						c358.15,40.17,699.43-191.51,707.89-580.8C2253.04,1726.04,2277.53,1801.09,2277.31,1881.92z"/>
				</g>
			</g>
			<g>
				<g>
					<path class="st2" d="M1802.38,2405.12c-4.64,0-9.25-0.05-13.9-0.16l-2.46-0.25c-29.37-5.31-58.66-13.04-87.07-22.98
						c-10.5-3.74-19.69-7.25-28.17-10.76c-18.47-7.57-36.9-16.31-54.74-25.94c-84.28-45.58-155.67-112.42-206.46-193.29l0,0
						c-91.62-145.9-110.18-322.54-50.92-484.61c34.23-93.71,93.01-176.91,170-240.63l1.26-1.04l1.44-0.76
						c64.52-34.14,140.53-54.36,225.91-60.1c153.71-10.34,315.06,48.75,431.64,158.07c105.02,98.49,162.65,226.01,162.26,359.08
						c-0.43,144.8-52.75,272.11-151.31,368.17C2098.24,2348.97,1954.03,2405.12,1802.38,2405.12z M1790.45,2373.25
						c147.84,3.13,288.88-50.17,387.25-146.06c92.31-89.98,141.31-209.46,141.72-345.53c0.36-124.17-53.7-243.43-152.23-335.82
						c-110.27-103.41-262.73-159.31-407.79-149.56c-80.27,5.4-151.5,24.15-211.75,55.73c-72.03,59.99-127.05,138.11-159.17,226.02
						c-55.86,152.79-38.37,319.3,47.99,456.83l0,0c47.88,76.25,115.19,139.27,194.66,182.25c16.84,9.09,34.25,17.34,51.73,24.51
						c8.03,3.32,16.74,6.64,26.66,10.18C1735.88,2361.02,1763.12,2368.25,1790.45,2373.25z"/>
				</g>
			</g>
			<g>
				<g>
					<path class="st2" d="M1804.14,2349.44c-102.39,0-206.68-28.45-300.36-84.92l-1.8-1.08l-44-46.03
						c-2.26-3.14-55.79-77.9-96.97-163.23c-42.33-87.73-35.86-219.35-35.57-224.91l0.32-2.43
						c53.61-253.95,200.7-390.78,437.19-406.69c137.2-9.25,281.26,43.51,385.32,141.09c93.8,87.95,145.26,201.86,144.92,320.74
						c-0.5,172.24-85.24,318.56-232.51,401.46C1982.33,2327.52,1893.97,2349.44,1804.14,2349.44z M1521.95,2238.4
						c165.75,99.11,366.03,105.81,523.15,17.36c137.02-77.13,215.88-213.41,216.34-373.89c0.32-109.98-47.59-215.63-134.89-297.49
						c-97.76-91.67-232.91-141.22-361.47-132.57c-220.19,14.82-357.45,142.77-407.99,380.31c-0.54,13.12-4.26,132.05,32.51,208.25
						c37.58,77.89,87.34,148.9,93.52,157.61L1521.95,2238.4z"/>
				</g>
			</g>
			<g>
				<g>
					<path class="st0" d="M2519.86,1842.7c12.77,106.45-40.24,203.57-118.42,216.92c-78.18,13.34-151.91-62.14-164.67-168.59
						c-0.09-0.67-0.16-1.38-0.22-2.05c-11.87-105.64,41-201.63,118.63-214.87c60.39-10.31,118.13,32.39,147.17,101.42
						C2510.89,1795.86,2516.95,1818.5,2519.86,1842.7z"/>
				</g>
			</g>
			<g class="st1">
				<g>
					<path class="st2" d="M2519.86,1842.7c12.77,106.45-40.24,203.57-118.42,216.92c-78.18,13.34-151.91-62.14-164.67-168.59
						c-0.09-0.67-0.16-1.38-0.22-2.05c9.91,9.46,24.57,17.93,42.26,11.21c30.98-11.78,79.74-89.96,79.74-89.96
						s62.26-15.46,143.8-34.7C2510.89,1795.86,2516.95,1818.5,2519.86,1842.7z"/>
				</g>
			</g>
			<g>
				<g>
					<path class="st2" d="M2383.25,2077.04c-27.82,0-55.1-9.51-79.92-28.04c-44.39-33.13-74.4-90.03-82.33-156.09
						c-13.74-114.55,45.26-219.73,131.52-234.45c34.93-5.96,69.78,3.12,100.78,26.26c44.39,33.13,74.4,90.03,82.33,156.09l0,0
						c13.74,114.55-45.26,219.72-131.52,234.45C2397.15,2076.45,2390.18,2077.04,2383.25,2077.04z M2373.17,1688.46
						c-5.1,0-10.21,0.43-15.31,1.3c-69.84,11.92-117.1,101.36-105.34,199.38c6.79,56.62,32.88,106.88,69.79,134.43
						c23.86,17.81,50.31,24.87,76.45,20.41c69.84-11.92,117.1-101.36,105.34-199.37c-6.79-56.63-32.88-106.88-69.79-134.43
						C2415.1,1695.83,2394.23,1688.46,2373.17,1688.46z"/>
				</g>
			</g>
			<g>
				<g>
					
						<ellipse transform="matrix(0.9997 -0.0234 0.0234 0.9997 -43.2551 57.2719)" class="st0" cx="2426.07" cy="1877.28" rx="116.67" ry="154.33"/>
				</g>
				<g>
					<path class="st2" d="M2427.8,2033.36c-10.81,0-21.69-1.99-32.45-5.98c-62.89-23.34-100.41-109.59-83.64-192.26
						c9.35-46.09,33.84-83.16,67.17-101.7c24.79-13.79,51.73-15.94,77.91-6.23c62.89,23.34,100.41,109.58,83.64,192.25
						c-9.35,46.09-33.83,83.16-67.17,101.7C2458.65,2029.27,2443.3,2033.36,2427.8,2033.36z M2424.35,1724.54
						c-14.95,0-29.76,3.94-43.86,11.78c-32.49,18.07-56.37,54.32-65.53,99.46c-16.46,81.14,20.12,165.69,81.54,188.49
						c25.23,9.37,51.22,7.28,75.14-6.02c32.49-18.07,56.37-54.32,65.53-99.46l0,0c16.46-81.14-20.11-165.69-81.54-188.48
						C2445.27,1726.46,2434.78,1724.54,2424.35,1724.54z"/>
				</g>
			</g>
			<g class="st1">
				<g>
					<path class="st2" d="M2324.43,1955.7c-10.55-27.26-13.54-57.52-10.03-86.72c29.37,60.11,90.36,78.57,141.17,40.52
						c32.84-24.58,53.85-67.13,59.26-112.32c1.88,3.78,3.6,7.79,5.2,11.92c26.83,69.42,4.79,158.52-49.23,198.99
						C2416.77,2048.57,2351.25,2025.08,2324.43,1955.7z"/>
				</g>
			</g>
			<g>
				<g>
					<path class="st2" d="M2431.17,2047.5c-20.66,0-41.02-7.11-59.67-20.98c-35.96-26.74-61.32-76.23-67.83-132.4
						c-11.19-96.48,33.4-181.59,101.51-193.76c26.07-4.65,52.25,2.1,75.72,19.55c35.96,26.74,61.32,76.23,67.84,132.4l0,0
						c11.18,96.48-33.41,181.59-101.51,193.76C2441.86,2047.03,2436.51,2047.5,2431.17,2047.5z M2421.01,1730.71
						c-3.43,0-6.85,0.3-10.25,0.91c-49.9,8.92-84.51,81.67-75.56,158.85c5.52,47.63,26.17,88.96,55.24,110.57
						c16.27,12.09,33.97,16.85,51.19,13.78c49.9-8.92,84.51-81.67,75.56-158.85c-5.52-47.63-26.17-88.96-55.24-110.57
						C2448.9,1735.69,2434.92,1730.71,2421.01,1730.71z"/>
				</g>
			</g>
			<g class="st8">
				<g>
					<path class="st0" d="M1905.83,1533.04c0,0-239.97,31.38-363.99,177.15c-0.13,0.15-0.26,0.31-0.39,0.46
						c-26.08,30.7-43.31,67.77-50.18,107.16c-9.09,52.1-7.63,89.26-5.06,121.92c7.84,99.32,30.35,144.28,30.35,144.28
						c-61.4-47.68-98.37-104.55-105.73-187.21c-0.7-8.15-1.13-16.58-1.28-25.25c-0.04-2-0.04-3.98-0.01-5.98
						c-0.05-0.02-0.03-0.06,0.02-0.12c0.94-17.59,3.05-40.67,7.64-66.52c13.79-77.97,49.84-181.19,143.2-235.51
						C1734.96,1461.85,1913.3,1521.97,1905.83,1533.04z"/>
				</g>
			</g>
			<g class="st8">
				<g>
					
						<ellipse transform="matrix(0.9385 -0.3453 0.3453 0.9385 -483.1896 827.3873)" class="st0" cx="2081.15" cy="1770.16" rx="73.69" ry="84.65"/>
				</g>
			</g>
			<g class="st8">
				<g>
					
						<ellipse transform="matrix(0.9024 -0.431 0.431 0.9024 -617.2382 1115.3518)" class="st0" cx="2153.02" cy="1919.95" rx="30.42" ry="34.97"/>
				</g>
			</g>
		</g>
		<g>
			<g>
				<path class="st3" d="M1778.82,2914.73l-748.27-5.2c-28.04-0.23-52.94-17.93-62.37-44.32l-13.4-37.63l-219.01-614.02
					c-18.02-50.52,19.64-103.56,73.26-103.2l725.72,4.68c4.04,0.03,8.01,0.36,11.92,1c27.46,4.46,50.81,23.52,60.37,50.29
					l235.09,659.28C1857.71,2869.21,1825.18,2915.05,1778.82,2914.73z"/>
			</g>
		</g>
		<g>
			<g class="st1">
				<g>
					<path class="st2" d="M996.4,2899.8l747.42,5.2c46.35,0.32,78.88-45.51,63.31-89.12l-235.09-659.27
						c-4.79-13.43-13.06-24.91-23.57-33.59c32.4,125.89,82.67,386.56-7.65,536.56c-109.05,181.05-466.18,175.37-586.05,168
						l13.41,37.63c5.54,15.49,16.42,27.94,30.12,35.67C997.67,2900.52,997.02,2900.18,996.4,2899.8z"/>
				</g>
			</g>
		</g>
		<g class="st9">
			<g>
				<path class="st0" d="M764.9,2212.26l247.08,692.77c-17.77-6.88-32.14-21.19-38.79-39.83l-232.41-651.65
					c-18.02-50.52,19.64-103.56,73.26-103.2l725.72,4.68c29.1,0.16,55.36,16.7,68.35,42.15c-2.2-0.36-4.43-0.55-6.72-0.55
					l-793.36-5.14C776.47,2151.31,754.28,2182.54,764.9,2212.26z"/>
			</g>
		</g>
		<g>
			<g>
				<path class="st2" d="M1779.3,2929.21c-0.19,0-0.38,0-0.56,0l-748.27-5.21c-33.99-0.24-64.5-21.91-75.92-53.92l-232.43-651.64
					c-10.2-28.59-5.97-59.18,11.6-83.94c17.45-24.58,44.68-38.64,74.79-38.64c0.2,0,0.41,0,0.62,0l725.71,4.69
					c38.43,0.25,72.92,24.73,85.83,60.93l235.12,659.25c8.89,24.94,5.05,52.71-10.28,74.3
					C1830.29,2916.46,1805.57,2929.21,1779.3,2929.21z M1778.94,2900.24c0.13,0,0.26,0,0.38,0c17.14,0,32.63-8,42.57-21.99
					c10.01-14.09,12.42-31.51,6.61-47.8l-235.12-659.25c-8.83-24.77-32.44-41.52-58.73-41.69l-725.71-4.69c-0.14,0-0.29,0-0.42,0
					c-20.61,0-39.24,9.62-51.18,26.45c-12.02,16.94-14.92,37.87-7.94,57.44l232.43,651.64c7.35,20.6,26.97,34.54,48.84,34.69
					L1778.94,2900.24z"/>
			</g>
		</g>
		<g>
			<g>
				<g>
					<path class="st10" d="M1334.42,2499.6l-26.25,27.23c-2.61,2.68-4.38,6.02-5.19,9.57c-0.66,2.8-0.69,5.78-0.1,8.69l1.17,5.71
						l6.37,31.33c3.4,16.57-13.7,29.85-28.95,22.46l-34.01-16.53c-6.04-2.93-13.13-2.71-18.99,0.61l-32.91,18.62
						c-14.73,8.35-32.63-3.82-30.3-20.58l5.23-37.45c0.91-6.67-1.5-13.36-6.45-17.89l-27.9-25.51
						c-11.96-10.95-6.94-30.47,8.15-34.73c0.67-0.18,1.36-0.34,2.06-0.47l37.24-6.62c6.6-1.18,12.23-5.54,15.01-11.65l12.58-27.62
						l3.08-6.79c7.02-15.43,28.66-16.1,36.64-1.17l17.79,33.37c3.16,5.91,9.04,9.91,15.72,10.67l37.57,4.26
						C1338.82,2467.03,1346.14,2487.38,1334.42,2499.6z"/>
				</g>
			</g>
			<g class="st11">
				<g>
					<path class="st0" d="M1334.42,2499.6l-26.25,27.23c-2.61,2.68-4.38,6.02-5.19,9.57c-1.26-0.74-2.5-1.54-3.74-2.34
						c-2.58-1.7-5.24-3.54-6.61-6.28c-1.7-3.39-1.1-7.6,0.8-10.84c1.92-3.28,4.94-5.73,8.13-7.78c5.12-3.28,11.5-6.59,12.3-12.64
						c0.59-4.47-2.42-8.79-6.32-11.05c-3.9-2.26-8.54-2.83-13.02-3.13c-6.35-0.47-12.75-0.49-19.13-0.12
						c-4.4,0.26-8.92,0.71-13.19-0.34c-9.45-2.35-15.64-11.46-18.94-20.58c-3.34-9.15-4.71-19.01-9.15-27.65
						c-1-1.96-2.24-3.91-4.01-5.21c-1.73-1.22-3.86-1.78-5.94-2.23c-4.34-0.9-8.64-1.35-12.95-1.44l3.08-6.79
						c7.02-15.43,28.66-16.1,36.64-1.17l17.79,33.37c3.16,5.91,9.04,9.91,15.72,10.67l37.57,4.26
						C1338.82,2467.03,1346.14,2487.38,1334.42,2499.6z"/>
				</g>
			</g>
			<g>
				<g>
					<path class="st12" d="M1310.43,2582.13c3.4,16.57-13.7,29.85-28.95,22.46l-34.01-16.53c-6.04-2.93-13.13-2.71-18.99,0.61
						l-32.91,18.62c-14.73,8.35-32.63-3.82-30.3-20.58l5.23-37.45c0.91-6.67-1.5-13.36-6.45-17.89l-27.9-25.51
						c-11.96-10.95-6.94-30.47,8.15-34.73c0.25,0.74,0.53,1.51,0.95,2.37c2.68,5.78,7.46,10.71,12.67,14.28
						c10.05,6.91,22.22,11.14,30.05,20.45c11.04,13.14,10.28,32.04,11.31,49.16c0.2,3,0.6,6.31,2.85,8.32
						c2.15,1.91,5.37,2.05,8.18,1.53c9.43-1.79,17.22-9.67,26.81-9.96c13.12-0.4,41.27,28.76,51.66,20.54
						c8.28-6.55-4.84-28.72,15.29-27.02L1310.43,2582.13z"/>
				</g>
			</g>
			<g>
				<g>
					<path class="st2" d="M1185.49,2622.49c-6.46,0-12.89-1.92-18.49-5.73c-10.44-7.1-15.85-19.27-14.11-31.78l5.21-37.45
						c0.36-2.59-0.58-5.19-2.5-6.95l-27.89-25.52c-9.32-8.53-12.92-21.35-9.39-33.48c3.52-12.13,13.43-21.03,25.87-23.24l37.22-6.61
						c2.57-0.46,4.76-2.15,5.84-4.53l15.66-34.41c5.23-11.49,16.32-18.88,28.94-19.28c12.7-0.43,24.16,6.28,30.1,17.42v0
						l17.79,33.36c1.23,2.3,3.51,3.85,6.11,4.15l37.57,4.26c12.55,1.42,23,9.69,27.28,21.57c4.28,11.88,1.5,24.91-7.26,34.01
						l-26.23,27.23c-1.81,1.88-2.58,4.53-2.06,7.09l7.56,37.05c2.52,12.37-2.1,24.86-12.08,32.61c-9.98,7.74-23.23,9.12-34.59,3.6
						l-34-16.53c-2.35-1.15-5.11-1.06-7.38,0.23l-32.9,18.64C1196.65,2621.06,1191.06,2622.49,1185.49,2622.49z M1232.87,2418.49
						c-0.09,0-0.17,0-0.25,0c-1.48,0.05-5.13,0.59-6.97,4.64l-15.66,34.41c-4.49,9.87-13.54,16.89-24.22,18.79l-37.22,6.61
						c-4.38,0.78-5.82,4.17-6.23,5.6c-0.41,1.43-1.02,5.06,2.26,8.07l27.89,25.52c8,7.32,11.88,18.1,10.39,28.84l-5.21,37.45
						c-0.61,4.41,2.17,6.82,3.4,7.66c1.23,0.83,4.49,2.53,8.37,0.34l32.9-18.64c9.44-5.34,20.89-5.7,30.64-0.96l34,16.53
						c4.01,1.96,7.16,0.04,8.33-0.87c1.17-0.91,3.8-3.49,2.91-7.85l-7.56-37.05c-2.17-10.62,1.03-21.63,8.55-29.43l26.23-27.23
						c3.09-3.21,2.25-6.8,1.75-8.19c-0.5-1.39-2.15-4.69-6.57-5.2l-37.57-4.26c-10.77-1.22-20.25-7.66-25.35-17.22l-17.79-33.36v0
						C1237.89,2418.97,1234.48,2418.49,1232.87,2418.49z"/>
				</g>
			</g>
		</g>
		<g>
			<g>
				<path class="st2" d="M2920.97,2229.42c-4.04,0-7.84-2.46-9.35-6.46c-1.96-5.16,0.64-10.93,5.8-12.89
					c4.38-1.67,108.21-40.46,184.91-14.96c5.24,1.74,8.08,7.4,6.34,12.64c-1.74,5.24-7.41,8.07-12.64,6.34
					c-69.88-23.23-170.5,14.3-171.51,14.68C2923.34,2229.21,2922.15,2229.42,2920.97,2229.42z"/>
			</g>
		</g>
		<g>
			<g>
				<path class="st0" d="M2545.67,2294.64c0,0,236.93,253.12,81.83,384.02c-130.4,110.05-270.06-37.24-270.06-37.24
					s-15.72,48.64-63.6,69.92c-58.76,26.11-128.07-21.28-128.07-21.28s-25.46,68.21-77.52,47.88
					c-55.65-21.73-15.63-219.98,96.65-332.14c129.91-129.76,321.75-16.72,321.75-16.72"/>
			</g>
		</g>
		<g class="st1">
			<g>
				<path class="st2" d="M2680.15,2565.8c-0.14,41.31-14.63,80.78-52.65,112.86c-130.38,110.07-270.07-37.26-270.07-37.26
					s-15.71,48.66-63.58,69.95c-58.76,26.11-128.06-21.29-128.06-21.29s-25.45,68.21-77.52,47.87
					c-23.72-9.27-30.05-50.51-20.82-103.52c0.69,37,9.74,62.6,27.66,66.26c50.04,10.21,40.48-81.03,40.48-81.03
					s37.29,86.79,120.75,58.69c81.76-27.59,101.09-112.1,101.09-112.1s165.32,144.65,277.17,59.71
					C2657.3,2608.67,2671.89,2588.22,2680.15,2565.8z"/>
			</g>
		</g>
		<g>
			<g>
				<path class="st2" d="M2549.2,2291.34c13,9.41,24.43,20.16,35.26,31.56c10.87,11.36,20.88,23.49,30.28,36.11
					c18.62,25.35,35.26,52.39,48.53,81.38c3.5,7.14,6.3,14.68,9.44,22.01c2.67,7.58,5.74,14.96,7.98,22.73
					c5.16,15.23,8.79,31.15,11.33,47.3c2.54,16.18,3.05,32.89,1.8,49.59c-1.52,16.75-5.89,33.35-12.39,49.1
					c-3.86,7.6-7.31,15.45-12.35,22.33l-3.53,5.31l-1.77,2.65l-2.03,2.43l-8.19,9.67c-2.6,3.37-5.93,5.92-8.89,8.89
					c-3.08,2.81-6.02,5.86-9.24,8.45l-9.75,7.62c-3.21,2.58-6.84,4.68-10.25,7.04c-13.94,9.02-29.16,16.46-45.32,21.4
					c-16.16,4.9-33.13,7.19-49.94,7.01c-33.76-0.37-66.14-10.54-94.91-25.39c-14.44-7.44-28.18-16-41.18-25.49
					c-6.51-4.73-12.82-9.73-18.99-14.92c-6.23-5.3-11.97-10.42-18.15-16.73l24.29-5.51c-1.14,3.31-2.07,5.52-3.21,8.11
					c-1.11,2.49-2.25,4.92-3.49,7.3c-2.41,4.79-5.16,9.37-8.06,13.86c-5.84,8.94-12.68,17.31-20.49,24.8
					c-7.82,7.49-16.58,14.11-26.11,19.53c-4.92,2.45-9.6,5.16-15.03,6.92l-7.94,2.87l-8.17,1.87c-21.98,4.82-43.99,2.02-64.17-3.38
					c-10.07-2.91-19.88-6.43-29.29-10.7c-4.69-2.17-9.34-4.42-13.89-6.88c-4.65-2.56-8.85-4.89-13.78-8.17l21.74-6.89
					c-2.05,5.22-3.99,9.09-6.31,13.44c-2.28,4.21-4.78,8.31-7.55,12.29c-5.56,7.94-12.14,15.58-20.54,21.98
					c-8.33,6.35-18.81,11.46-30.21,12.83c-5.64,0.78-11.4,0.66-16.84-0.23c-5.58-0.81-10.49-2.3-15.69-4.38
					c-6.02-2.66-11.55-6.56-15.48-11.19l-2.95-3.49c-0.94-1.18-1.58-2.4-2.37-3.62l-2.22-3.67c-0.66-1.23-1.14-2.45-1.72-3.69
					c-4.36-9.87-6.52-19.66-7.51-29.1c-2.11-18.96-0.73-37.11,1.69-54.9c5.16-35.52,15.64-69.43,29.15-101.98
					c13.66-32.48,30.4-63.72,50.94-92.58c10.24-14.43,21.36-28.31,33.44-41.39c11.86-13.07,25.83-25.47,40.67-35.97
					c29.79-21.42,65.59-34.07,101.57-38.49c18.04-2.26,36.18-2.36,54.11-1.3c17.92,1.3,35.76,3.44,53.15,7.55
					c17.37,4.1,34.28,9.92,50.3,17.54c15.94,7.86,31.13,17.09,44.12,30.15c1.94,1.95,1.93,5.11-0.02,7.05
					c-1.24,1.24-2.98,1.68-4.57,1.34l-0.31-0.07c-33.72-7.56-64.77-18.21-96.72-25.74c-15.91-3.82-31.94-7.27-48.16-8.54
					c-16.18-1.52-32.44-1.16-48.37,0.77c-31.8,3.97-62.58,14.84-88.49,33.47c-25.94,18.12-47.88,43.6-67.09,70.37
					c-19.18,26.93-34.98,56.41-47.84,86.99c-12.73,30.61-22.55,62.66-27.21,94.95c-2.22,16.06-3.31,32.36-1.59,47.45
					c0.73,7.57,2.56,14.66,5.1,20.43c2.62,5.83,5.99,9.43,9.46,10.91c12.14,4.91,23.62,3.61,34.11-4.52
					c5.24-3.97,10.06-9.4,14.29-15.45c2.11-3.04,4.08-6.25,5.87-9.57c1.74-3.19,3.56-7.02,4.64-9.77l0.03-0.09
					c2.94-7.5,11.41-11.2,18.91-8.26c0.98,0.38,1.96,0.91,2.8,1.46c3.11,2.08,7.35,4.49,11.17,6.58c3.96,2.13,8.01,4.09,12.09,5.98
					c8.2,3.72,16.63,6.71,25.12,9.18c16.97,4.54,34.52,6.55,50.47,2.93l5.97-1.32l5.67-2.1c3.82-1.13,7.53-3.35,11.27-5.16
					c7.28-4.16,14.04-9.26,20.18-15.12c6.14-5.87,11.62-12.56,16.35-19.8c2.33-3.63,4.59-7.34,6.51-11.19c1-1.9,1.91-3.85,2.76-5.78
					c0.83-1.83,1.71-4.09,2.16-5.35l0.04-0.12c2.68-7.62,11.02-11.63,18.65-8.96c2.17,0.76,4.09,2.03,5.6,3.57
					c4.6,4.69,10.33,9.89,15.84,14.55c5.62,4.73,11.4,9.3,17.35,13.63c11.88,8.67,24.39,16.44,37.33,23.12
					c25.84,13.36,53.95,21.92,82,22.2c13.99,0.15,27.91-1.74,41.25-5.77c13.34-4.08,26.04-10.28,37.95-17.98
					c2.92-2.03,6.01-3.77,8.79-6.03l8.46-6.61c2.79-2.23,5.17-4.79,7.79-7.15c2.46-2.49,5.38-4.61,7.45-7.41l6.74-7.97l1.69-1.99
					l1.42-2.17l2.85-4.32c4.17-5.56,6.82-11.95,10.02-18.03c5.18-12.74,8.81-26.17,10.09-40.16c0.96-13.99,0.75-28.28-1.69-42.54
					c-4.66-28.51-14.8-56.57-28.02-83.2c-12.99-26.77-28.23-52.7-44.42-78.17c-16.16-25.5-32.97-50.85-48.7-77.5l-0.07-0.11
					c-1.38-2.34-0.6-5.35,1.74-6.73C2545.55,2290.07,2547.66,2290.23,2549.2,2291.34z"/>
			</g>
		</g>
		<g>
			<g>
				<path class="st2" d="M2136.92,2611.45c5.04,13.87,10.35,26.94,16.68,38.58c3.1,5.87,6.83,11.07,10.15,16.2
					c3.4,5.14,7.17,9.5,10.48,14.63l0.87,1.35c3.76,5.83,2.08,13.6-3.75,17.35c-4.42,2.85-9.97,2.56-14.03-0.29
					c-7-4.93-12.64-11.62-16.68-18.86c-4.04-7.25-6.65-15.07-8.28-22.83c-1.63-7.78-2.33-15.6-2.24-23.31
					c0.21-7.74,1-15.33,3.22-22.82c0.29-0.98,1.33-1.55,2.31-1.26c0.59,0.17,1.02,0.61,1.22,1.14L2136.92,2611.45z"/>
			</g>
		</g>
		<g>
			<g>
				<path class="st2" d="M2362.22,2562.5c3.65,6.08,6.31,12.75,8.26,19.56c1.83,6.82,3.19,13.82,3.81,20.82
					c0.62,7,0.97,14.06,0.23,21c-0.75,7.02-1.92,13.65-4.96,20.64c-2.78,6.4-10.22,9.34-16.62,6.56c-4.79-2.08-7.65-6.78-7.61-11.69
					l0.01-1.07c0.05-5.84,1.2-12.21,2.33-18.26c1.12-6.13,2.75-12.2,4.11-18.38c1.41-6.18,2.65-12.39,3.83-18.75
					c1.23-6.37,2.06-12.8,3.12-19.66l0.01-0.08c0.16-1.03,1.12-1.73,2.15-1.58C2361.46,2561.7,2361.94,2562.04,2362.22,2562.5z"/>
			</g>
		</g>
		<g>
			<g>
				<path class="st2" d="M2567.91,2724.91c-2.17,0-4.38-0.57-6.38-1.76c-5.93-3.53-7.88-11.2-4.35-17.13
					c77.62-130.48-115.23-331.82-117.19-333.84c-4.8-4.96-4.69-12.87,0.27-17.67c4.96-4.8,12.87-4.69,17.67,0.26
					c8.54,8.8,208.11,217.15,120.73,364.03C2576.33,2722.73,2572.17,2724.91,2567.91,2724.91z"/>
			</g>
		</g>
	</g>
</g>
</svg>
