<?xml version="1.0" encoding="utf-8"?>
<!-- Generator: Adobe Illustrator 24.0.1, SVG Export Plug-In . SVG Version: 6.00 Build 0)  -->
<svg version="1.1" id="Layer_1" xmlns="http://www.w3.org/2000/svg" xmlns:xlink="http://www.w3.org/1999/xlink" x="0px" y="0px"
	 viewBox="0 0 4000 4000" style="enable-background:new 0 0 4000 4000;" xml:space="preserve">
<style type="text/css">
	.st0{opacity:0.3;}
	.st1{fill:#371A45;}
	.st2{fill:#FFFFFF;}
	.st3{opacity:0.35;}
	.st4{fill:#5A5A5A;}
	.st5{fill:none;stroke:#293856;stroke-width:32.8772;stroke-linecap:round;stroke-linejoin:round;stroke-miterlimit:10;}
	.st6{fill:#32B1D1;}
	.st7{fill:#575B5A;}
	.st8{fill:#A34F31;}
	.st9{fill:#6B184E;}
	.st10{fill:#BF943D;}
	.st11{fill:#EC1C24;}
	.st12{fill:#FFCE00;}
	.st13{opacity:0.7;}
	.st14{fill:#220F2D;}
</style>
<g>
	<g>
		<g class="st0">
			<ellipse class="st1" cx="2065" cy="3430" rx="830" ry="150"/>
		</g>
		<g>
			<g>
				<path class="st2" d="M1775.35,1816.64l-78.14,247.52c-119.84,33.85-419.76-19.97-626.6-162.54
					c-89.21-61.44-161.09-139.41-193.79-233.94c-95.68-276.56,151.7-293.4,246.95-233.33c74.09,46.72,128.74,108.86,195.51,170.26
					C1415.13,1692.74,1536.03,1779.35,1775.35,1816.64z"/>
			</g>
			<g class="st3">
				<path class="st1" d="M1723.87,1979.75l-26.66,84.4c-119.84,33.85-419.76-19.97-626.6-162.54
					c-89.21-61.44-161.09-139.41-193.79-233.94c-35.48-102.56-23.8-169.38,9.83-209.84c-1.98,33.85,4.19,74.93,21.24,124.24
					c0.5,1.44,1.04,2.91,1.61,4.41c27.05,70.61,118.19,89.49,172.83,37.23c10.55-10.1,17.68-15.16,17.71-10.45
					c0.57,94.45-29.43,168.69,1.64,202.75C1268.92,1999.37,1601.21,2011.09,1723.87,1979.75z"/>
			</g>
			<g>
				<path class="st4" d="M1775.34,1816.63l-36.01,114.02l-42.13,133.5c-20.72,5.86-46.81,9.08-76.86,9.7
					c-143.86,2.91-378.64-54.3-549.73-172.24c140.24-69.64,213.8-206.93,248.66-297.01c44.69,41.12,94.89,81.89,159.99,117.54
					c58.97,32.22,130.24,60.2,220.77,80.35C1723.73,1807.77,1748.81,1812.49,1775.34,1816.63z"/>
			</g>
			<g class="st3">
				<path class="st1" d="M1775.34,1816.63l-78.14,247.52c-119.84,33.85-419.76-19.97-626.6-162.54
					c22.04-10.93,42.44-23.58,61.31-37.42c107.06,61.28,230.2,101.83,338.48,121.75c125.3,23.05,248.13-50.85,286.49-172.34v0
					C1762.96,1814.65,1769.08,1815.66,1775.34,1816.63z"/>
			</g>
			<g>
				<path class="st1" d="M1608.52,2090.71c-115.14,0-272.16-36.03-406.7-97c-51.59-23.35-98.89-49.8-140.6-78.62
					c-101.25-69.74-168.53-151.18-199.94-242.05c-49.24-142.32-8.87-212.42,33.68-246.17c65.65-52.07,175.84-45.37,237.57-6.43
					c55.67,35.13,99.79,77.88,146.49,123.14c16.62,16.1,33.8,32.76,51.64,49.14c34.07,31.34,64.44,55.94,95.61,77.42
					c96.37,66.52,208.09,107.91,351.61,130.26c8.97,1.4,15.11,9.8,13.72,18.77c-1.4,8.97-9.73,15.14-18.77,13.71
					c-148.59-23.14-264.64-66.26-365.22-135.69c-32.46-22.37-63.98-47.88-99.19-80.28c-18.14-16.67-35.49-33.47-52.27-49.73
					c-45.44-44.04-88.37-85.64-141.15-118.94c-51.12-32.25-145.68-38.38-199.6,4.39c-49.06,38.91-57.03,111.42-23.03,209.66
					c29.06,84.1,92.16,160.05,187.53,225.74c40.11,27.71,85.69,53.19,135.49,75.73c186.7,84.6,389.32,109.45,477.36,84.57
					c8.74-2.47,17.82,2.61,20.29,11.35c2.47,8.74-2.62,17.82-11.35,20.29C1675.94,2087.24,1644.24,2090.71,1608.52,2090.71z"/>
			</g>
			<g>
				<path class="st2" d="M1425.32,1703.29c-33.89,125.41-121.37,216.85-198.83,276.28c-12.74,9.77-29.9,11.54-44.37,4.58
					c-22.95-11.04-45.49-22.88-67.39-35.54c-26.87-15.53-28.35-53.95-2.81-71.59c29.39-20.3,58.71-44.99,85.66-74.93
					c52.85-58.74,86.22-114.77,107.11-159.74c11.79-25.38,44.28-32.82,65.8-14.94c12.38,10.29,25.26,20.48,38.75,30.49
					C1423.37,1668.37,1429.91,1686.32,1425.32,1703.29z"/>
			</g>
			<g class="st3">
				<path class="st1" d="M1399.04,1774.41c-42.18,89.56-110.58,157.61-172.55,205.16c-12.74,9.78-29.93,11.55-44.38,4.58
					c-22.92-11.06-45.48-22.92-67.39-35.57c-26.84-15.51-28.34-53.95-2.82-71.58c9.87-6.79,19.74-14.15,29.49-21.99
					c3.44,7.62,9.21,14.41,17.28,19.08c21.91,12.65,44.47,24.46,67.39,35.52c14.5,6.96,31.65,5.2,44.38-4.58
					C1313.89,1871.73,1360.52,1828.27,1399.04,1774.41z"/>
			</g>
			<g>
				<path class="st1" d="M1200.64,2004.84c-8.7,0-17.46-1.94-25.65-5.88c-23.67-11.39-46.71-23.54-68.48-36.12
					c-17.5-10.11-28.44-28.25-29.26-48.52c-0.82-20.31,8.65-39.31,25.32-50.83c30.92-21.36,58.77-45.72,82.79-72.4
					c44.04-48.95,79.17-101.32,104.42-155.67c7.8-16.81,22.63-28.77,40.66-32.83c17.94-4.05,36.38,0.4,50.55,12.18
					c12.91,10.73,25.35,20.52,38.04,29.93c19.8,14.69,28.5,39.38,22.15,62.89c0,0,0,0,0,0c-36.07,133.46-131.23,228.66-204.7,285.03
					C1225.95,2000.7,1213.36,2004.84,1200.64,2004.84z M1343.42,1634.02c-1.91,0-3.84,0.21-5.76,0.64c-8,1.8-14.58,7.12-18.06,14.6
					c-26.63,57.32-63.57,112.43-109.8,163.81c-25.73,28.59-55.52,54.65-88.54,77.46c-7.47,5.15-11.53,13.34-11.17,22.46
					c0.37,9.07,5.05,16.87,12.86,21.38c21.06,12.16,43.36,23.93,66.29,34.96c8.95,4.3,19.38,3.22,27.24-2.81
					c69.44-53.28,159.3-142.93,192.97-267.52v0c2.8-10.37-1.12-21.33-10-27.91c-13.17-9.77-26.08-19.93-39.47-31.05
					C1355.24,1636.1,1349.41,1634.02,1343.42,1634.02z M1425.32,1703.29h0.05H1425.32z"/>
			</g>
			<g>
				<path class="st2" d="M2743.95,2607.42c-94.54,123.26-340.71,80.53-340.71,80.53l-2.15-832.92l-0.44-168.23
					c0,0,140.43,3.73,247.14,47.82c51.42,21.21,94.98,51.82,111.27,95.86C2815.79,1983.52,2821.63,2506.12,2743.95,2607.42z"/>
			</g>
			<g class="st3">
				<path class="st1" d="M2801.54,2178c3.31,182.64-13.97,372.51-57.59,429.4c-94.53,123.27-340.73,80.55-340.73,80.55
					l-2.55-1001.11c0,0,2.61,0.06,7.41,0.32l1.97,780.56c0,0,246.2,42.72,340.73-80.55C2776.39,2353.77,2792.92,2274.6,2801.54,2178
					z"/>
			</g>
			<g>
				<path class="st1" d="M2500.12,2711.75c-54.4,0-95.56-6.88-99.69-7.59c-8.95-1.55-14.94-10.06-13.39-19
					c1.55-8.95,10.08-14.95,19-13.4c2.36,0.41,237.54,39.52,324.87-74.36c71.97-93.84,70.39-605.64,12.74-761.19
					c-45.77-123.49-340.45-132.9-343.42-132.98c-9.07-0.25-16.23-7.8-15.99-16.88c0.24-9.08,7.89-16.08,16.87-15.99
					c13.04,0.35,319.92,10.18,373.37,154.42c27.47,74.12,45.1,240.37,43.87,413.68c-0.65,90.73-7.92,309.28-61.35,378.95
					C2696.93,2695.74,2583.11,2711.75,2500.12,2711.75z"/>
			</g>
			<g>
				<path class="st2" d="M2783.48,2254.79l-167.78,12.6c-14.98,1.12-27.32,12.18-30,26.97c-9.79,54.13-25.92,180.31,26.73,221.98
					c43.7,34.59,114.65,30.53,156.22-4.66c46.51-39.36,51.05-163.12,50.3-224.39C2818.72,2268.24,2802.47,2253.37,2783.48,2254.79z"
					/>
			</g>
			<g class="st3">
				<path class="st1" d="M2585.72,2294.38c-9.82,54.11-25.92,180.3,26.73,221.95c43.7,34.6,114.64,30.54,156.23-4.66
					c28.58-24.23,41.31-80.36,46.69-134.23c-7.56,26.91-19.42,48.77-34.18,63.11c-84.56,82.16-147.69-14.71-147.69-14.71
					s-10.96,23.52-19.69,24.85c-36.51,5.57-28.96-108.72-23.68-167.77C2588,2286.32,2586.46,2290.18,2585.72,2294.38z"/>
			</g>
			<g>
				<path class="st1" d="M2686.36,2556.77c-30.59,0-60.85-9.12-84.13-27.54c-57.63-45.61-45.22-168.56-32.71-237.79
					c4-22.12,22.49-38.75,44.94-40.43l167.78-12.6l0,0c13.52-1.02,27.09,3.66,37.11,12.85c10.02,9.18,15.86,22.24,16.03,35.83
					c1.05,85.63-7.83,196.27-56.11,237.13C2753.74,2545.83,2719.85,2556.77,2686.36,2556.77z M2784.71,2271.19l-167.78,12.6
					c-7.52,0.57-13.71,6.12-15.05,13.5c-18.8,103.93-11.04,181,20.75,206.16c36.5,28.89,98.52,26.9,135.41-4.32
					c29.17-24.69,45.8-103.81,44.48-211.63c-0.06-4.62-1.96-8.88-5.37-12C2793.75,2272.37,2789.35,2270.86,2784.71,2271.19
					L2784.71,2271.19z"/>
			</g>
			<g>
				<path class="st1" d="M2648.47,2391.4c1.87,21.05,1.76,41.12,3.14,61.05c1.27,19.85,3.51,39.45,8.38,57.86
					c4.82,18.35,12.45,35.51,23.92,48.41c11.37,13.01,26.59,21.23,43.63,25.29l0.06,0.01c8.84,2.1,14.29,10.98,12.19,19.81
					c-2.1,8.84-10.98,14.29-19.81,12.19c-0.35-0.08-0.73-0.19-1.07-0.29c-11-3.42-21.81-8.21-31.66-14.72
					c-9.86-6.48-18.65-14.67-25.77-23.89c-14.35-18.55-21.86-40.21-26.01-61.22c-4.15-21.15-5.11-42.16-5.13-62.78
					c-0.09-20.58,1.26-41.07,0.76-60.5l-0.01-0.23c-0.12-4.8,3.67-8.8,8.48-8.93C2644.19,2383.34,2648.06,2386.86,2648.47,2391.4z"
					/>
			</g>
			<g>
				<path class="st1" d="M2684.39,1824.41c-15.45,1.2-31.17,3.01-46.68,5.13c-15.55,2.11-31.03,4.63-46.41,7.51
					c-15.39,2.83-30.68,6.09-45.81,9.76c-15.17,3.55-30.1,7.84-44.91,12.26l-0.28,0.08c-8.72,2.6-17.89-2.35-20.49-11.07
					c-2.6-8.71,2.36-17.89,11.07-20.49c0.51-0.15,1.05-0.29,1.57-0.39c15.92-3.1,31.83-6,47.8-8.11c15.95-2.25,31.92-4.02,47.9-5.37
					c15.97-1.38,31.95-2.39,47.93-2.97c16.02-0.6,31.89-0.86,48.07-0.52c3.91,0.08,7.02,3.32,6.94,7.23
					c-0.08,3.67-2.92,6.62-6.5,6.91L2684.39,1824.41z"/>
			</g>
			<g class="st3">
				<path class="st1" d="M2647.79,1734.63c-73.55,55.9-157.56,96.78-246.7,120.41l-0.44-168.23
					C2400.65,1686.81,2541.08,1690.54,2647.79,1734.63z"/>
			</g>
			<g>
				<path class="st2" d="M2073.46,3293.15c-71.75,166.25-378.95,138.88-456.47,70.08c-79.42-70.56,64.17-158.62,64.17-158.62
					c-30.01-50.99-46.41-123.63-54.61-200.23c-9.34-86.87-8.2-178.76-4.63-249.68c3.66-73.12,9.92-123.94,9.92-123.94l452.81-245.05
					c-0.31,92.16-15.73,170.96-29.53,234.12c-29.4,134.25-27.5,237.51-15.6,321.87c5.77,40.94,13.88,77.44,21.95,110.85
					C2084.22,3146.91,2106.38,3216.82,2073.46,3293.15z"/>
			</g>
			<g>
				<path class="st4" d="M2039.53,2941.71c5.77,40.94,13.88,77.44,21.95,110.85c-203.27,35.66-358.85-14.28-434.92-48.17
					c-9.34-86.87-8.2-178.76-4.63-249.68c3.66-73.12,9.92-123.94,9.92-123.94l452.81-245.05c-0.31,92.16-15.73,170.96-29.53,234.12
					C2025.73,2754.08,2027.63,2857.35,2039.53,2941.71z"/>
			</g>
			<g class="st3">
				<path class="st1" d="M2049.14,2648.87c-1.8,9.53-3.47,18.88-5.01,28.1C2045.62,2667.75,2047.29,2658.4,2049.14,2648.87z"/>
			</g>
			<g>
				<path class="st1" d="M1821.1,3433.51c-91.73,0-178.11-25.23-215-58c-21.54-19.14-31.36-41.36-29.18-66.04
					c4.37-49.41,56.92-92.12,82.59-110.18c-90.97-177.82-45.97-554.16-43.96-570.51c1.11-9.01,9.28-15.44,18.32-14.31
					c9.01,1.11,15.42,9.31,14.31,18.32c-0.49,4-48.07,401.74,47.16,563.49c4.55,7.72,2.07,17.67-5.57,22.35
					c-21.13,13-76.73,55.2-80.11,93.75c-1.22,13.93,4.76,26.54,18.27,38.54c43.87,38.96,174.26,64.48,283.1,40.31
					c51.57-11.45,118.99-38.9,147.35-104.62c27.86-64.56,13.28-123.8-6.91-205.78c-26.9-109.27-60.39-245.27-12.41-464.48
					c14.97-68.41,28.86-143.71,29.15-230.71c0.03-9.06,7.39-16.38,16.44-16.38c0.02,0,0.03,0,0.05,0
					c9.08,0.03,16.42,7.41,16.39,16.49c-0.3,90.08-14.55,167.44-29.91,237.63c-46.34,211.74-13.87,343.63,12.22,449.6
					c20.9,84.9,37.41,151.96,5.17,226.67c-26.81,62.11-85.73,104.88-170.41,123.69C1886.43,3430.37,1853.43,3433.51,1821.1,3433.51z
					"/>
			</g>
			<g>
				<path class="st1" d="M1948.55,3075.38c-99.84,0-236.04-11.12-328.32-62.98c-5.94-3.33-8.04-10.85-4.71-16.79
					c3.33-5.94,10.85-8.05,16.79-4.71c151.14,84.96,439.6,54.08,442.5,53.75c6.78-0.74,12.86,4.12,13.61,10.89
					c0.76,6.77-4.12,12.86-10.89,13.62C2072.48,3069.72,2019.76,3075.38,1948.55,3075.38z"/>
			</g>
			<g>
				<path class="st5" d="M1999.41,2738.47"/>
			</g>
			<g>
				<path class="st6" d="M1896.94,1990.31"/>
			</g>
			<g class="st3">
				<path class="st1" d="M1615.16,2230.13c-10.67,95.95-16.86,179.12-18.14,248.5C1595.27,2413.98,1601.54,2330.6,1615.16,2230.13z"
					/>
			</g>
			<g class="st3">
				<path class="st1" d="M2567.69,2349.61c-0.44-37.28-2.72-77.28-6.89-119.66C2565.98,2273.03,2568.26,2313.08,2567.69,2349.61z"/>
			</g>
			<g>
				<path class="st2" d="M1978.82,2874.29c162.77,11.42,286.44-39.05,328.77-57.88c108.67-48.35,192.24-136.09,233.1-251.9
					c63.1-178.83,17.73-574.21-153.64-1023.09l-557.04-35.45c-253.45,484.34-309.74,1014.16-205.28,1188.41
					c10.53,17.57,22.11,34.54,36.61,49.51c59.71,61.65,154.16,97.96,230.6,116.18"/>
			</g>
			<g>
				<path class="st4" d="M2566.07,2422.03c-3.39,56.33-11.94,104.32-25.39,142.49c-40.86,115.78-124.42,203.53-233.11,251.88
					c-42.31,18.82-165.98,69.33-328.75,57.87l-86.91-14.19c-76.42-18.2-170.87-54.52-230.59-116.18
					c-14.5-14.99-26.05-31.95-36.58-49.54c-63.38-105.73-67.56-342.45-4.41-620.52c13.27-58.44,22.75-116.39,42.1-177.65
					c9.52-30.23,26.52-63.04,37.59-93.71c35.39-98.46,78.63-198.42,129.97-296.53l557.05,35.48
					c33.89,88.81,62.89,175.55,87.05,258.89c0.04,0.09,0.04,0.13,0.04,0.18C2546.06,2048.51,2575.5,2266.76,2566.07,2422.03z"/>
			</g>
			<g>
				<path class="st1" d="M1654.49,1962.03c0.73,5.99,0.79,11.78,0.64,17.5c-0.09,5.74-0.57,11.36-1.15,16.95
					c-1.01,11.21-3.29,22.07-5.45,32.95c-4.21,21.78-9.95,43.17-15.28,64.68c-5.4,21.49-9.71,43.23-13.69,65.01
					c-4.09,21.77-7.64,43.62-10.99,65.49c-12.84,87.49-20.14,176.07-15.83,263.78c2.27,43.74,7.39,87.41,18.54,128.9
					c5.62,20.66,12.65,40.88,22.29,59.18c4.76,8.87,10.49,18.34,16.41,27.04c5.93,8.76,12.24,17.04,19.11,24.62
					c28.31,30.45,64.93,54.38,103.73,73.06c9.73,4.69,19.63,9.1,29.69,13.15c10.03,4.13,20.48,7.23,30.86,10.44
					c10.35,3.29,20.59,6.9,30.64,11.38c5,2.31,10,4.74,14.85,7.82c4.85,3.1,9.72,6.26,14.34,10.76l0.19,0.19
					c2.46,2.4,2.51,6.34,0.11,8.81c-0.8,0.83-1.81,1.38-2.84,1.67c-12.37,3.32-24.14,3.07-35.55,1.43
					c-11.38-1.78-22.46-4.86-33.2-8.9c-10.73-4.07-21.21-8.79-31.83-13.14c-10.62-4.36-21.15-8.98-31.53-14.01
					c-41.44-20.05-81.15-45.5-113.84-80.61c-8.13-8.96-15.36-18.5-21.95-28.23c-6.63-9.78-12.5-19.4-18.31-30.21
					c-11.17-21.26-18.83-43.52-24.93-65.9c-12.03-44.85-17.26-90.43-19.64-135.8c-4.45-90.84,3.08-181.18,16.14-270.3
					c3.41-22.27,7.02-44.5,11.18-66.63c2.01-11.08,4.16-22.12,6.4-33.15l6.43-33.14c4.15-22.13,8.77-44.19,15.34-65.74
					c6.35-21.59,14.38-42.79,28.54-62.05c1.91-2.6,5.57-3.16,8.18-1.25c1.35,0.99,2.14,2.45,2.34,3.98L1654.49,1962.03z"/>
			</g>
			<g>
				<path class="st1" d="M2026.98,2892.41c-16.05,0-32.49-0.55-49.31-1.73c-9.05-0.64-15.88-8.49-15.24-17.55
					c0.63-9.06,8.41-15.88,17.55-15.25c138.44,9.72,250.95-25.36,320.93-56.5c106.15-47.22,185.81-133.29,224.29-242.35
					c55.27-156.63,30.13-526.57-149.75-1001.88l-546.48-34.78c-9.06-0.58-15.94-8.39-15.36-17.45c0.58-9.06,8.39-15.93,17.45-15.36
					l557.04,35.45c6.42,0.41,12.02,4.53,14.31,10.54c161.26,422.39,223.07,838.1,153.79,1034.42
					c-41.52,117.67-127.44,210.52-241.93,261.45C2249.37,2860.31,2149.6,2892.41,2026.98,2892.41z"/>
			</g>
			<g>
				<path class="st1" d="M2026.96,2892.4c-16.05,0-32.47-0.55-49.27-1.73c-9.06-0.63-15.88-8.49-15.25-17.55
					c0.63-9.06,8.43-15.88,17.55-15.25c138.47,9.72,250.92-25.36,320.91-56.49c106.15-47.22,185.81-133.29,224.28-242.33
					c60.93-172.7,15.05-530.36-116.87-911.17c-2.97-8.58,1.57-17.94,10.15-20.91c8.59-2.97,17.94,1.58,20.91,10.15
					c134.21,387.41,180.06,753.59,116.81,932.87c-41.52,117.66-127.44,210.5-241.93,261.43
					C2249.35,2860.3,2149.57,2892.4,2026.96,2892.4z"/>
			</g>
			<g>
				<path class="st1" d="M1903.64,3211.87c-18.16-5.93-36.8-10.19-55.33-12.74c-18.52-2.73-37.08-3.51-55.27-2.67
					c-9.11,0-18.11,1.64-27.05,2.43c-8.86,1.73-17.76,2.75-26.39,5.13c-4.31,1.19-8.76,1.75-13.01,3.14
					c-4.25,1.38-8.53,2.64-12.83,3.83c-4.34,1.08-8.5,2.74-12.71,4.28c-4.23,1.5-8.5,2.92-12.86,4.22l-1.56,0.46
					c-8.69,2.6-17.84-2.35-20.43-11.04c-2.27-7.61,1.24-15.57,7.98-19.17c18.13-9.71,37.77-17.29,58.25-20.66
					c10.12-2.32,20.52-2.68,30.79-3.48c5.15-0.18,10.31,0.09,15.44,0.18c5.14-0.01,10.24,0.51,15.33,1.05
					c20.35,1.95,40.26,6.45,59.12,13.31c18.85,6.93,36.81,15.74,52.86,27.64c1.05,0.78,1.27,2.26,0.49,3.3
					c-0.62,0.84-1.69,1.15-2.63,0.84L1903.64,3211.87z"/>
			</g>
			<g class="st3">
				<path class="st1" d="M2567.69,2349.61c-0.88,62.75-216.17-262.11-216.17-219.04c0,94.56,31.21,236.17,23.35,365.37
					c-2.02,33.19-5.15,64.72-8.27,92.88c-6.98,62.96-23.99,109.37-59,122.14c-37.39,13.65-138.3,47.53-273.49,48.78
					c-17.86,0.17-36.29-0.22-55.27-1.31c-79.46-4.56-264.38-40.13-341.4-130.68c-4.62-5.43-8.91-11.03-12.7-16.87
					c-16.99-26.08-26.04-70.65-27.71-132.26c-2.02,103.76,6.85,176.74,27.71,215.78c0.29,0.54,0.63,1.05,0.92,1.59
					c-1.32,17.09-2.64,36.89-3.73,58.7c0.88,1.98,1.84,3.87,2.81,5.67c47.17,88.36,161.45,138.48,254.43,162.48
					c43.83,11.31,78.49,45.31,89.88,89.12c26.99,103.86,76.51,157.04,51.21,233.98c-51.73,157.16-318.62,110.44-423.35,48.7
					c-7.82,22.39-4.92,46.37,20.11,68.59c77.51,68.81,384.71,96.17,456.46-70.08c44.61-103.37-11.86-194.92-33.94-351.43
					c-1.32-9.36-2.5-18.93-3.56-28.81c-0.26-2.28-0.48-4.61-0.7-6.94c-0.26-2.5-0.48-4.96-0.7-7.51c-0.26-2.85-0.48-5.75-0.75-8.69
					c-0.31-4.39-0.62-8.87-0.92-13.39c-0.01-0.16-0.01-0.34-0.02-0.5c135.82-1.28,237.23-42.79,274.74-59.48
					c108.68-48.35,192.25-136.08,233.08-251.88C2559.61,2510.9,2568.79,2437.79,2567.69,2349.61z"/>
			</g>
			<g>
				<path class="st2" d="M2514.73,3355.08c-71.8,166.29-378.99,138.92-456.47,70.12c-79.42-70.56,64.13-158.62,64.13-158.62
					c-50.6-59.15-74.57-140.51-84.45-220.9c-17.98-146.1,10.62-288.95,10.62-288.95l477.32-309.09
					c-0.31,92.2-15.69,171.01-29.53,234.21c-34.95,159.68-25.65,275.55-7.85,367.93C2513.36,3179.04,2554.79,3262.3,2514.73,3355.08
					z"/>
			</g>
			<g>
				<path class="st4" d="M2496.35,2681.85c-34.95,159.68-25.65,275.55-7.85,367.93c-274.71,96.21-446.07-1.54-450.57-4.1
					c-17.98-146.1,10.62-288.95,10.62-288.95l181.58-141.82l295.74-167.27C2525.57,2539.84,2510.19,2618.65,2496.35,2681.85z"/>
			</g>
			<g class="st3">
				<path class="st1" d="M2496.35,2681.85c-34.95,159.68-25.65,275.55-7.84,367.93c-274.71,96.21-446.07-1.54-450.57-4.1
					c-1.23-9.83-2.2-19.66-3-29.4c0.75,0.21,1.51,0.42,2.27,0.63c174.33,47.84,350.53-74.36,365.06-254.55
					c3.38-41.88,9.97-87.41,20.87-137.19c8.46-38.56,17.45-82.9,23.27-132.57l79.47-44.96
					C2525.57,2539.84,2510.19,2618.64,2496.35,2681.85z"/>
			</g>
			<g class="st3">
				<path class="st1" d="M2496.33,2682.77c-83.83,383.13,87.03,514.16,18.36,673.3c-71.75,166.25-378.96,138.89-456.46,70.08
					c-20.81-18.49-26.3-38.16-23.05-57.17c104.25,55.02,365.57,64.46,430.99-87.16c23.63-54.75-119.15-161.18-120.11-280.16
					c-0.8-99.71,27.11-201.59,56.35-280.44c23.53-63.46,37.98-261.03,165.02-330.23c-1.8,67.67-10.28,124.89-25.29,169.28
					c-7.33,2.33-15.59,4.74-24.68,7.11C2511.7,2610.14,2503.8,2648.74,2496.33,2682.77z"/>
			</g>
			<g>
				<path class="st1" d="M2053.95,2758.75c0.27,44.36-1.95,87.92-3.44,131.38c-1.04,43.46-1.37,86.87,1.86,129.96
					c1.52,21.55,4.3,42.96,8.16,64.08c3.82,21.13,8.86,42,15.51,62.21c6.68,20.16,14.25,40.06,24.23,58.55
					c9.83,18.55,21.32,36.05,34.63,51.93c5.88,7.02,4.96,17.48-2.06,23.36c-0.55,0.46-1.13,0.89-1.72,1.27l-0.12,0.07
					c-6.26,3.95-13.17,8.86-19.51,13.68c-6.42,4.9-12.65,10.05-18.57,15.42c-11.75,10.76-22.71,22.41-30.62,34.97
					c-7.93,12.48-12.73,25.82-11.32,37.49c1.37,11.56,8.59,22.77,19.79,32c10.91,9.04,25.07,16.37,39.78,22.3
					c14.8,5.94,30.41,10.59,46.28,14.38c31.86,7.34,64.79,11.09,97.67,11.68c16.45,0.19,32.88-0.42,49.21-1.85
					c16.28-1.71,32.51-3.88,48.36-7.51c31.66-7.06,62.29-18.43,88.48-35.81c12.96-8.8,24.91-18.85,35-30.48
					c9.91-11.77,17.99-24.83,24.27-38.86c12.28-28.95,16.97-60.2,14.48-92.27c-2.24-32.07-9.86-64.64-17.82-97.51
					c-8.05-32.91-16.5-66.24-23.1-100.16c-6.68-33.89-11.74-68.28-14.5-102.88c-2.8-34.6-3.33-69.38-1.77-104.01
					c1.54-34.64,5.12-69.11,10.2-103.31c5.27-34.04,12.77-68.26,19.62-100.97c6.82-33.03,10.63-66.37,15.33-99.44
					c4.73-33.15,8.87-66.09,18.13-99.81l0.01-0.04c0.83-3.02,3.95-4.79,6.97-3.96c2.02,0.55,3.49,2.15,3.98,4.04
					c8.93,34.33,8.8,69.41,5.53,103.84c-3.15,34.53-10.96,68.31-17.72,101.95c-7.13,33.88-14.19,66.16-19.36,99.38
					c-4.91,33.12-8.37,66.4-9.86,99.75c-3.17,66.74,2.54,133.45,15.69,199.12c6.4,32.89,14.66,65.56,22.79,98.74
					c8,33.2,16.12,67.17,18.68,103.08c1.35,17.89,0.82,36.3-1.99,54.48c-2.8,18.17-7.91,36.06-15.06,52.93
					c-7.57,17.07-17.52,33.14-29.59,47.39c-12.24,14.12-26.51,26.11-41.69,36.39c-30.64,20.3-64.96,32.8-99.58,40.54
					c-17.35,3.96-34.89,6.32-52.44,8.15c-17.57,1.54-35.17,2.19-52.75,1.98c-35.15-0.64-70.18-4.6-104.66-12.54
					c-17.22-4.11-34.3-9.17-51.09-15.91c-16.74-6.83-33.34-15.02-48.71-27.68c-1.98-1.48-3.74-3.25-5.52-5
					c-1.77-1.78-3.6-3.42-5.29-5.33c-3.3-3.95-6.65-7.81-9.39-12.45c-5.66-8.94-9.81-19.58-11.04-30.68
					c-1.3-11.1,0.35-22.1,3.45-31.91c3.13-9.86,7.66-18.73,12.79-26.84c10.31-16.25,23.03-29.52,36.3-41.71
					c6.68-6.06,13.58-11.76,20.68-17.18c7.21-5.46,14.16-10.46,22.28-15.58l-3.9,24.7c-15.1-17.98-27.94-37.57-38.77-58.04
					c-10.99-20.44-19.21-42-26.39-63.71c-7.21-21.74-12.34-43.96-16.69-66.21c-2.3-11.12-3.92-22.32-5.68-33.5
					c-1.39-11.21-2.95-22.42-3.99-33.65c-4.75-44.9-5.29-90.05-1.84-134.79c1.65-22.37,4.26-44.66,8.56-66.68
					c4.39-22.02,9.61-43.8,18.1-65.05c1.14-2.86,4.38-4.25,7.24-3.11c2.17,0.86,3.49,2.94,3.51,5.14L2053.95,2758.75z"/>
			</g>
			<g>
				<path class="st1" d="M2260.67,3102.22c-73.17,0-154.16-10.97-228.05-45.47c-6.17-2.88-8.84-10.22-5.96-16.39
					c2.88-6.17,10.21-8.84,16.39-5.96c190.34,88.85,439.62,11.54,442.12,10.74c6.49-2.06,13.42,1.53,15.48,8.03
					c2.06,6.49-1.54,13.42-8.03,15.48C2485.98,3070.76,2384.52,3102.22,2260.67,3102.22z"/>
			</g>
			<g>
				<path class="st1" d="M2370.03,3299.08c-3.13,0-6.3-0.89-9.1-2.76c-4.17-2.76-101.8-65.68-232.43-13.52
					c-8.43,3.37-17.99-0.73-21.37-9.17c-3.36-8.43,0.74-18,9.17-21.36c147.32-58.82,258.23,13.59,262.88,16.7
					c7.55,5.05,9.57,15.26,4.52,22.81C2380.54,3296.52,2375.33,3299.08,2370.03,3299.08z"/>
			</g>
			<g>
				<g>
					<path class="st7" d="M2530.72,2633.84"/>
				</g>
				<g>
					<path class="st1" d="M2644.84,2735.27c0.14-0.16,0.02-1.38-0.02-2.16l-0.31-2.73c-0.24-1.86-0.58-3.75-0.93-5.65
						c-0.78-3.78-1.82-7.56-3-11.3c-2.35-7.49-5.72-14.62-9.62-21.38c-7.99-13.4-19.26-24.78-33.21-31.93
						c-3.46-1.84-7.02-3.26-11.18-4.87c-3.99-1.63-8.06-3.01-12.14-4.39c-8.14-2.81-16.43-5.17-24.8-7.16
						c-8.35-2.06-16.82-3.57-25.29-4.76c-8.35-1.07-17.28-1.77-24.99-1.64l-0.34,0l-0.46,0c-7.71-0.05-16.63,0.73-24.96,1.87
						c-8.45,1.26-16.9,2.85-25.22,4.98c-8.33,2.06-16.59,4.49-24.7,7.37c-4.06,1.41-8.11,2.83-12.08,4.5
						c-4.14,1.64-7.65,3.08-11.06,4.94c-13.78,7.18-24.62,18.69-32.49,31.9c-3.78,6.73-7.04,13.81-9.29,21.24
						c-1.12,3.71-2.1,7.45-2.83,11.2c-0.32,1.88-0.63,3.75-0.85,5.58l-0.27,2.68c-0.03,0.75-0.14,1.98,0.03,2.06
						c19.23,9.47,27.14,32.74,17.67,51.97c-9.47,19.23-32.74,27.14-51.97,17.67c-17.33-8.54-25.47-28.29-19.97-46.18l10.01-32.67
						c0.64-2.08,1.08-3,1.63-4.38l1.56-3.69c1.06-2.41,2.18-4.72,3.33-7.01c2.27-4.58,4.67-9.01,7.29-13.32
						c5.25-8.58,10.98-16.85,17.7-24.35c13.1-15.17,29.85-27.68,48.55-34.76c4.62-1.88,9.51-3.28,13.76-4.4
						c4.39-1.22,8.79-2.41,13.22-3.49c8.85-2.17,17.73-4.16,26.7-5.75c8.97-1.59,17.96-3.07,27.07-3.96
						c9.22-0.93,17.98-1.69,27.96-1.39h-0.8c9.99-0.21,18.73,0.62,27.93,1.62c9.09,0.96,18.06,2.52,27,4.18
						c8.94,1.67,17.79,3.73,26.6,5.97c4.41,1.11,8.79,2.34,13.16,3.59c4.24,1.16,9.07,2.59,13.64,4.48
						c18.53,7.11,34.85,19.74,47.83,34.73c6.61,7.46,12.22,15.68,17.36,24.21c2.57,4.27,4.92,8.68,7.13,13.22
						c1.12,2.27,2.22,4.56,3.25,6.94l1.52,3.65c0.53,1.35,0.97,2.28,1.58,4.28l5.53,18.11c4.34,14.23-3.67,29.28-17.9,33.63
						s-29.28-3.67-33.63-17.9C2636.79,2751.56,2639.16,2742.02,2644.84,2735.27z"/>
				</g>
				<g>
					<path class="st8" d="M2810.1,3298.09h-622.32c-43,0-77.85-34.86-77.85-77.85v-411.35c0-43,34.85-77.85,77.85-77.85h622.32
						c43,0,77.85,34.85,77.85,77.85v411.35C2887.95,3263.23,2853.1,3298.09,2810.1,3298.09z"/>
				</g>
				<g>
					<path class="st1" d="M2818.49,3314.51h-639.07c-47.37,0-85.91-38.54-85.91-85.91v-428.07c0-47.4,38.54-85.95,85.91-85.95
						h639.07c47.37,0,85.91,38.56,85.91,85.95v428.07C2904.4,3275.97,2865.86,3314.51,2818.49,3314.51z M2179.41,2747.45
						c-29.24,0-53.03,23.81-53.03,53.08v428.07c0,29.25,23.79,53.04,53.03,53.04h639.07c29.24,0,53.03-23.79,53.03-53.04v-428.07
						c0-29.27-23.79-53.08-53.03-53.08H2179.41z"/>
				</g>
				<g class="st3">
					<path class="st1" d="M2828.73,3070.95v-11.23c33.51-4.96,59.22-33.8,59.22-68.71v-126.96c0-38.38-31.09-69.52-69.47-69.52
						h-540.07v416.5h-103.87c-38.38,0-69.47-31.09-69.47-69.47v87.05c0,38.34,31.09,69.47,69.47,69.47h639.07
						c38.38,0,69.47-31.14,69.47-69.47v-87.05c0,37.87-30.25,68.63-67.95,69.43v-118.49
						C2823.18,3088.66,2828.73,3080.44,2828.73,3070.95z M2747.14,3211.04H2346.4v-118.53c8.05-3.85,13.6-12.07,13.6-21.56v-10.46
						h387.14V3211.04z"/>
				</g>
				<g class="st0">
					<path class="st9" d="M2278.41,2794.54v265.95h-99c-38.38,0-69.47-31.09-69.47-69.47v-126.96c0-38.38,31.09-69.52,69.47-69.52
						H2278.41z"/>
				</g>
				<g>
					<path class="st8" d="M2887.96,2800.53v126.96c0,38.38-31.09,69.47-69.47,69.47h-639.07c-38.38,0-69.48-31.09-69.48-69.47
						v-126.96c0-38.38,31.09-69.52,69.48-69.52h639.07C2856.86,2731.02,2887.96,2762.15,2887.96,2800.53z"/>
				</g>
				<g class="st0">
					<path class="st2" d="M2887.96,2800.52v58.29c0-38.38-31.09-69.52-69.47-69.52h-119.67c0.04,0.3,0.04,0.59,0.04,0.89
						c0,31.9-40.41,57.78-90.23,57.78c-49.82,0-90.19-25.88-90.19-57.78c0-0.3,0-0.59,0.04-0.89h-339.06
						c-38.38,0-69.47,31.14-69.47,69.52v-58.29c0-38.38,31.09-69.52,69.47-69.52h639.07
						C2856.86,2731,2887.96,2762.14,2887.96,2800.52z"/>
				</g>
				<g>
					<path class="st1" d="M2818.49,3013.4h-639.07c-47.37,0-85.91-38.54-85.91-85.91v-126.96c0-47.4,38.54-85.95,85.91-85.95h639.07
						c47.37,0,85.91,38.56,85.91,85.95v126.96C2904.4,2974.86,2865.86,3013.4,2818.49,3013.4z M2179.41,2747.45
						c-29.24,0-53.03,23.81-53.03,53.08v126.96c0,29.24,23.79,53.03,53.03,53.03h639.07c29.24,0,53.03-23.79,53.03-53.03v-126.96
						c0-29.27-23.79-53.08-53.03-53.08H2179.41z"/>
				</g>
				<g>
					<path class="st10" d="M2277.21,3298.07h-14.3c-14.77,0-26.85-12.08-26.85-26.85v-515.2c0-14.77,12.08-26.85,26.85-26.85h14.3
						c14.77,0,26.85,12.08,26.85,26.85v515.2C2304.05,3285.99,2291.97,3298.07,2277.21,3298.07z"/>
				</g>
				<g class="st3">
					<path class="st1" d="M2346.4,2753.16v41.39h-67.99v-41.39c0-13.17,10.8-23.98,23.98-23.98h20.08
						C2335.64,2729.18,2346.4,2739.98,2346.4,2753.16z"/>
				</g>
				<g class="st0">
					<path class="st9" d="M2278.41,2940.18v154.07c-10.55-2.5-18.43-12.03-18.43-23.3v-107.47
						C2259.98,2952.21,2267.86,2942.68,2278.41,2940.18z"/>
				</g>
				<g>
					<path class="st11" d="M2277.21,3298.07h-14.3c-14.77,0-26.85-12.08-26.85-26.85v-515.2c0-14.77,12.08-26.85,26.85-26.85h14.3
						c14.77,0,26.85,12.08,26.85,26.85v515.2C2304.05,3285.99,2291.97,3298.07,2277.21,3298.07z"/>
				</g>
				<g>
					<path class="st11" d="M2745.84,3298.07h-14.3c-14.77,0-26.85-12.08-26.85-26.85v-515.2c0-14.77,12.08-26.85,26.85-26.85h14.3
						c14.77,0,26.85,12.08,26.85,26.85v515.2C2772.68,3285.99,2760.6,3298.07,2745.84,3298.07z"/>
				</g>
				<g>
					<path class="st1" d="M2277.21,3314.51h-14.3c-23.87,0-43.29-19.42-43.29-43.29v-515.2c0-23.87,19.42-43.28,43.29-43.28h14.3
						c23.87,0,43.29,19.42,43.29,43.28v515.2C2320.49,3295.09,2301.07,3314.51,2277.21,3314.51z M2262.9,2745.62
						c-5.64,0-10.41,4.77-10.41,10.41v515.2c0,5.64,4.77,10.41,10.41,10.41h14.3c5.64,0,10.41-4.77,10.41-10.41v-515.2
						c0-5.64-4.77-10.41-10.41-10.41H2262.9z"/>
				</g>
				<g>
					<path class="st1" d="M2745.84,3314.51h-14.3c-23.87,0-43.29-19.42-43.29-43.29v-515.2c0-23.87,19.42-43.28,43.29-43.28h14.3
						c23.87,0,43.29,19.42,43.29,43.28v515.2C2789.12,3295.09,2769.71,3314.51,2745.84,3314.51z M2731.54,2745.62
						c-5.64,0-10.41,4.77-10.41,10.41v515.2c0,5.64,4.77,10.41,10.41,10.41h14.3c5.64,0,10.41-4.77,10.41-10.41v-515.2
						c0-5.64-4.77-10.41-10.41-10.41H2731.54z"/>
				</g>
				<g>
					<path class="st12" d="M2761.87,3094.18h-46.36c-14.77,0-26.85-12.08-26.85-26.85v-101.72c0-14.77,12.08-26.85,26.85-26.85
						h46.36c14.77,0,26.85,12.08,26.85,26.85v101.72C2788.71,3082.1,2776.63,3094.18,2761.87,3094.18z"/>
				</g>
				<g>
					<path class="st1" d="M2761.86,3110.62h-46.36c-23.87,0-43.29-19.42-43.29-43.28v-101.72c0-23.87,19.42-43.28,43.29-43.28h46.36
						c23.87,0,43.29,19.42,43.29,43.28v101.72C2805.15,3091.2,2785.73,3110.62,2761.86,3110.62z M2715.51,2955.21
						c-5.64,0-10.41,4.77-10.41,10.41v101.72c0,5.64,4.77,10.41,10.41,10.41h46.36c5.64,0,10.41-4.77,10.41-10.41v-101.72
						c0-5.64-4.77-10.41-10.41-10.41H2715.51z"/>
				</g>
				<g>
					<path class="st12" d="M2290.81,3094.93h-46.36c-14.77,0-26.85-12.08-26.85-26.85v-101.72c0-14.77,12.08-26.85,26.85-26.85
						h46.36c14.77,0,26.85,12.08,26.85,26.85v101.72C2317.66,3082.85,2305.58,3094.93,2290.81,3094.93z"/>
				</g>
				<g>
					<path class="st1" d="M2291.46,3110.62h-46.36c-23.87,0-43.29-19.42-43.29-43.28v-101.72c0-23.87,19.42-43.28,43.29-43.28h46.36
						c23.87,0,43.29,19.42,43.29,43.28v101.72C2334.74,3091.2,2315.33,3110.62,2291.46,3110.62z M2245.1,2955.21
						c-5.64,0-10.41,4.77-10.41,10.41v101.72c0,5.64,4.77,10.41,10.41,10.41h46.36c5.64,0,10.41-4.77,10.41-10.41v-101.72
						c0-5.64-4.77-10.41-10.41-10.41H2245.1z"/>
				</g>
			</g>
			<g>
				<path class="st2" d="M2728.79,2501.54c-3.39,211.69-97.93,237.51-217.42,236.94c-99.78-0.53-106.44-76.95-106.44-76.95
					s-36.63-9.3-46.85-51.04c-9.26-37.68,29.93-94.89,41.96-111.33c2.2-2.95,3.48-4.58,3.48-4.58s4.1-24.95,4.14-68.01
					c0-8.37-0.13-17.45-0.48-27.15c-2.51-65.67-14.81-160.56-55.67-268.85l98.59-356.65c174.8,188.28,252.9,365.9,274.01,616.77
					c0.97,11.37,1.85,22.92,2.56,34.6c0.35,5.6,0.66,11.24,0.97,16.92C2728.75,2463.46,2729.14,2483.21,2728.79,2501.54z"/>
			</g>
			<g class="st3">
				<path class="st1" d="M2728.79,2501.54c-3.39,211.69-97.93,237.51-217.42,236.94c-99.78-0.53-106.44-76.95-106.44-76.95
					s-36.63-9.3-46.85-51.04c-3.26-13.27-0.53-28.96,4.94-44.47c13.88,29.75,45.61,9.86,45.61,9.86s2.96,103.41,102.75,103.94
					c116.53,0.57,209.31-23.98,216.98-221.51C2728.92,2473.51,2729.06,2487.92,2728.79,2501.54z"/>
			</g>
			<g>
				<path class="st4" d="M2726.68,2425.29c-115.87-6.88-256.77-1.67-319.01,1.28c0.04-65.1-9.26-171.67-56.15-296l31.95-166.62
					l66.64-190.03C2632.85,1970.76,2709.89,2155.92,2726.68,2425.29z"/>
			</g>
			<g class="st13">
				<path class="st2" d="M2726.68,2425.29c-115.87-6.88-256.77-1.67-319.01,1.28c0-10.89-0.26-22.96-0.93-36.05
					c71.62-2.56,178.19-4.63,269.29,0.79c-15.34-246.2-81.01-422.05-231.74-600.77l5.82-16.62
					C2632.84,1970.76,2709.88,2155.91,2726.68,2425.29z"/>
			</g>
			<g>
				<path class="st1" d="M2388.65,2365.72c-3.39-19.41-5.75-38.83-8.46-58.28c-2.73-19.43-5.14-38.97-8.28-58.48
					c-3.1-19.51-6.56-39.04-10.44-58.58c-3.77-19.58-8.05-39.13-12.15-58.95c-0.27-1.28,0.55-2.54,1.83-2.82
					c1.04-0.22,2.06,0.29,2.56,1.16c9.99,17.71,18.62,36.14,26.49,54.93c7.76,18.82,14.67,38.05,20.58,57.61
					c5.88,19.56,11.12,39.4,14.62,59.58c3.53,20.16,5.99,40.56,6,61.1c0,9.11-7.38,16.5-16.49,16.5c-8.14,0-14.91-5.9-16.26-13.66
					L2388.65,2365.72z"/>
			</g>
			<g>
				<path class="st1" d="M2515.58,2754.91c-1.43,0-2.85,0-4.28-0.01c-89.69-0.44-114.22-57.06-120.61-81.22
					c-14.37-6.55-39.7-22.93-48.6-59.28c-11.31-46.18,32.99-109.43,45.75-126.41c1.5-11.83,5.41-49.92,2.02-105.34
					c-0.56-9.06,6.34-16.86,15.41-17.41c9.07-0.53,16.86,6.34,17.41,15.41c4.35,71.18-2.63,114.76-2.93,116.58
					c-0.45,2.73-1.59,5.32-3.3,7.5c-19.86,25.27-48.93,75.27-42.42,101.85c7.63,31.16,33.99,38.75,35.11,39.06
					c6.63,1.82,11.59,7.62,12.18,14.47c0.64,6.18,8.72,61.51,90.14,61.91c56.51,0.31,113.76-4.83,150.82-43.69
					c39.08-40.98,55.09-117.93,48.95-235.24c-14.53-277.39-91.12-461.86-273.19-657.97c-6.18-6.65-5.79-17.05,0.86-23.23
					c6.65-6.18,17.06-5.79,23.23,0.86c187.91,202.39,266.96,392.66,281.93,678.62c6.73,128.6-11.69,211.1-57.99,259.65
					C2641.44,2747.83,2578.01,2754.91,2515.58,2754.91z"/>
			</g>
			<g>
				<path class="st1" d="M2417.79,2571.15l3.52,88.53l0.01,0.31c0.36,9.11-6.73,16.78-15.84,17.15
					c-9.11,0.36-16.79-6.73-17.15-15.84c-0.03-0.88,0.01-1.85,0.11-2.7l11.01-88.35c0.63-5.04,5.22-8.62,10.27-7.99
					c4.53,0.56,7.88,4.34,8.05,8.76L2417.79,2571.15z"/>
			</g>
			<g>
				<path class="st2" d="M1103.5,1638.75c-19.31-65.86,47.48-119.75,47.48-119.75s-60.26-108.32-13.27-137.69
					c25.17-15.73,95,58.42,111.22,106.99c16.22,48.57,16.25,95.28,16.25,95.28"/>
			</g>
			<g>
				<path class="st1" d="M1100.87,1639.52c-1.36-2.64-2.7-5.37-3.93-8.18c-0.61-1.41-1.28-2.82-1.83-4.26
					c-0.44-1.46-0.82-2.95-1.2-4.45c-0.7-3-1.68-6.05-2.12-9.15l-0.8-9.42c-0.39-12.63,1.82-25.48,6.05-37.42
					c4.31-11.89,10.38-22.99,17.53-33.16c3.6-5.08,7.45-9.95,11.56-14.62c1.98-2.39,4.23-4.58,6.41-6.84
					c2.33-2.28,4.35-4.27,7.31-6.81l-4.36,22.41c-9.07-16.29-15.96-32.32-21.67-49.71c-5.51-17.32-10.07-35.29-10.51-55.43
					c-0.15-10.01,1.04-20.98,5.8-32.06c1.02-2.76,2.83-5.43,4.33-8.09c1.94-2.48,3.63-5.19,5.99-7.33l3.42-3.31l3.75-2.82
					c1.72-1.49,7.25-4.71,11.34-5.43c8.89-2.07,15.92-0.49,21.63,1.19c5.73,1.82,10.66,4.12,15.08,6.64
					c8.96,5,16.43,10.79,23.61,16.8c14.17,12.1,26.52,25.46,37.4,40.09c5.5,7.27,10.52,14.93,15.12,22.98
					c4.65,8.02,8.76,16.51,12.08,25.74c0.79,2.29,1.63,4.81,2.27,7.01l1.81,6.55c1.17,4.38,2.07,8.8,2.98,13.21
					c1.63,8.85,2.71,17.76,3.22,26.67c0.77,17.85-0.09,35.7-5.19,53.26c-0.44,1.51-2.02,2.38-3.54,1.94
					c-0.92-0.27-1.59-0.95-1.89-1.79l-0.05-0.15c-5.77-16.61-10.51-32.83-15.53-48.64c-2.54-7.9-4.96-15.72-7.6-23.42
					c-1.3-3.84-2.6-7.68-3.97-11.46l-2.04-5.67c-0.7-1.85-1.34-3.34-2.07-5.04c-3.03-6.63-6.86-13.34-10.95-19.99
					c-4.17-6.61-8.79-13.1-13.54-19.49c-9.68-12.64-20.26-24.88-31.71-35.4c-5.7-5.19-11.68-10.1-17.54-13.63
					c-2.92-1.87-5.78-3.2-8.15-4.05c-2.36-0.9-4.09-0.83-3.56-0.91c0.09-0.07,0.24-0.16,0.54-0.25c0.03,0.01,0.39-0.37,0.08-0.12
					l-0.69,0.51l-1.42,0.96c-0.37,0.41-0.76,0.79-1.17,1.16c-0.92,0.64-1.35,1.75-2.18,2.51c-0.48,1.12-1.31,1.9-1.71,3.2
					c-2.15,4.6-3.13,11.01-2.86,18.03c0.45,14.11,4.84,29.59,10.41,44.5c2.84,7.49,5.96,14.96,9.32,22.34
					c3.23,7.33,6.99,14.94,10.38,21.64l0.49,0.97c3.79,7.51,1.57,16.49-4.85,21.45c-1.4,1.08-3.54,2.95-5.33,4.56l-5.53,5.27
					c-3.71,3.53-7.25,7.28-10.56,11.18c-6.75,7.72-12.79,15.94-18.14,24.56c-5.24,8.68-9.24,17.89-12.35,27.73
					c-2.97,9.93-3.82,20.39-4.07,31.88l-0.01,0.33c-0.03,1.53-1.3,2.75-2.84,2.72C1102.23,1641.01,1101.32,1640.4,1100.87,1639.52z"
					/>
			</g>
			<g class="st3">
				<path class="st1" d="M2728.79,2501.54c-4.19,1.76-8.86,2.47-13.75,1.98c-82.9-8.46-202.47-9.43-298.78-1.06
					c-5.82,0.48-11.42-0.75-16.22-3.31c2.2-2.95,3.48-4.58,3.48-4.58s4.1-24.95,4.14-68.01c0-8.37-0.13-17.45-0.48-27.15
					c97.36-12.87,221.51-16.84,306.84-11.28c3.57,0.22,7.01,1.1,10.09,2.56c0.97,11.37,1.85,22.92,2.56,34.6
					c0.35,5.6,0.66,11.24,0.97,16.92C2728.75,2463.46,2729.14,2483.21,2728.79,2501.54z"/>
			</g>
			<g>
				<path class="st2" d="M2715.04,2425.6c-82.91-8.47-202.49-9.44-298.78-1.07c-16.45,1.43-30.87-11.01-31.62-27.51
					c-0.61-13.59-1.61-28.21-3.09-43.74c-1.49-15.6,9.5-29.65,25.04-31.72c97.47-12.95,221.92-16.92,307.45-11.37
					c13.93,0.9,25.21,11.66,26.88,25.51c2.31,19.09,4.3,38.54,5.96,58.41C2748.4,2412.28,2733.18,2427.45,2715.04,2425.6z"/>
			</g>
			<g class="st3">
				<path class="st1" d="M2715.04,2425.6c-82.9-8.46-202.47-9.43-298.78-1.06c-16.44,1.41-30.9-11.02-31.6-27.55
					c-0.31-7.14-0.75-14.59-1.32-22.3c95.33-7.89,212-6.79,293.36,1.5c18.16,1.85,33.36-13.31,31.87-31.51
					c-1.01-11.81-2.12-23.49-3.31-35.04c2.95,0.18,5.91,0.35,8.77,0.53c13.93,0.93,25.21,11.68,26.88,25.52
					c2.34,19.08,4.32,38.56,5.95,58.4C2748.41,2412.29,2733.2,2427.45,2715.04,2425.6z"/>
			</g>
			<g>
				<path class="st1" d="M2718.02,2442.19c-1.54,0-3.1-0.08-4.65-0.24l0,0c-84.58-8.64-203.4-9.06-295.69-1.05
					c-12.3,1.07-24.76-2.98-34.06-11.13c-9.37-8.21-14.84-19.58-15.41-32.01c-0.64-14.06-1.66-28.51-3.03-42.93
					c-2.34-24.57,14.9-46.34,39.24-49.57c95.68-12.71,220.54-17.33,310.67-11.48c21.78,1.41,39.51,18.21,42.14,39.94
					c2.33,19.28,4.36,39.14,6.02,59.02c1.14,13.61-3.78,26.9-13.51,36.45C2741.21,2437.58,2729.85,2442.19,2718.02,2442.19z
					 M2716.71,2409.24c5.07,0.5,8.44-1.98,10-3.51c2.73-2.68,4.11-6.42,3.78-10.25c-1.63-19.49-3.61-38.94-5.89-57.81
					c-0.73-6.03-5.63-10.69-11.63-11.08c-88.22-5.72-210.46-1.19-304.22,11.26c-6.73,0.89-11.49,6.98-10.84,13.86
					c1.43,14.96,2.49,29.95,3.14,44.56c0.16,3.4,1.66,6.51,4.23,8.76c2.64,2.31,6.06,3.44,9.55,3.11
					C2508.98,2399.97,2630.29,2400.41,2716.71,2409.24L2716.71,2409.24z"/>
			</g>
			<g>
				<path class="st2" d="M2423.85,1642.5c-108.77,94.19-567.21,587.45-567.21,587.45l-131.97-493
					c30.28-77.09,65.36-154.61,105.34-230.99l557.05,35.48C2400.05,1575.46,2412.3,1609.18,2423.85,1642.5z"/>
			</g>
			<g>
				<path class="st2" d="M2423.85,1642.5c-108.77,94.19-567.21,587.45-567.21,587.45l-131.97-493
					c30.28-77.09,65.36-154.61,105.34-230.99l557.05,35.48C2400.05,1575.46,2412.3,1609.18,2423.85,1642.5z"/>
			</g>
			<g>
				<path class="st1" d="M1856.63,2246.39c-1.32,0-2.65-0.16-3.96-0.49c-5.81-1.44-10.37-5.92-11.91-11.7l-131.97-493
					c-0.91-3.39-0.71-6.99,0.58-10.26c31.27-79.6,66.96-157.86,106.07-232.6c3.02-5.76,9.22-9.18,15.61-8.78l557.05,35.48
					c6.42,0.41,12.01,4.53,14.31,10.54c12.78,33.44,25.22,67.6,36.98,101.55c2.2,6.35,0.31,13.41-4.77,17.81
					c-106.86,92.53-561.35,581.29-565.93,586.22C1865.53,2244.53,1861.14,2246.39,1856.63,2246.39z M1741.94,1737.93l122.9,459.08
					c88.39-94.83,432.52-462.8,539.86-559.52c-9.4-26.86-19.21-53.79-29.25-80.32l-535.81-34.13
					C1803.81,1592.3,1770.98,1664.51,1741.94,1737.93z"/>
			</g>
			<g>
				<path class="st1" d="M1856.63,2246.39c-1.32,0-2.65-0.16-3.96-0.49c-5.81-1.44-10.37-5.92-11.91-11.7l-131.97-493
					c-0.91-3.39-0.71-6.99,0.58-10.26c31.27-79.6,66.96-157.86,106.07-232.6c3.02-5.76,9.22-9.18,15.61-8.78l557.05,35.48
					c6.42,0.41,12.01,4.53,14.31,10.54c12.78,33.44,25.22,67.6,36.98,101.55c2.2,6.35,0.31,13.41-4.77,17.81
					c-24.82,21.5-70.61,66.31-136.06,133.19c-172.63,176.35-427.31,450.28-429.87,453.03
					C1865.53,2244.53,1861.14,2246.39,1856.63,2246.39z M1741.94,1737.93l122.9,459.09c63.94-68.56,265.72-284.3,410.21-431.91
					c59.4-60.69,102.93-103.53,129.65-127.62c-9.4-26.86-19.21-53.8-29.25-80.33l-535.81-34.13
					C1803.81,1592.3,1770.98,1664.51,1741.94,1737.93z"/>
			</g>
			<g>
				<path class="st11" d="M1880.52,1828.29l-30.72,40.81c-5.78,7.68-6.93,17.9-2.99,26.67l21.37,47.63
					c4.08,9.09,12.93,15.11,22.88,15.56l34.19,1.55c7.99,0.36,15.72-2.92,21-8.92l36.11-41.01c7.98-9.06,8.79-22.39,1.96-32.35
					l-33.56-48.98c-4.92-7.18-13.06-11.47-21.77-11.47h-27.39C1893.31,1817.78,1885.5,1821.67,1880.52,1828.29z"/>
			</g>
			<g>
				<path class="st1" d="M1926.47,1976.98c-0.66,0-1.32-0.01-1.98-0.05l-34.18-1.55c-16.25-0.74-30.47-10.41-37.13-25.25
					l-21.37-47.63c-6.39-14.23-4.52-30.82,4.86-43.28l30.72-40.81c0,0,0,0,0,0c8.04-10.69,20.84-17.07,34.21-17.07h27.39
					c14.14,0,27.34,6.96,35.33,18.62l33.55,48.97c11.09,16.19,9.78,37.78-3.18,52.5l-36.11,41.01
					C1950.38,1971.75,1938.78,1976.98,1926.47,1976.98z M1893.65,1838.18l-30.71,40.81c-2.18,2.89-2.61,6.75-1.13,10.05l21.37,47.63
					c1.54,3.45,4.85,5.7,8.62,5.87l34.18,1.55c3.02,0.17,5.92-1.09,7.92-3.37l36.1-41.01c3.01-3.42,3.32-8.44,0.74-12.2
					l-33.56-48.97c-1.86-2.71-4.92-4.33-8.21-4.33h-27.39C1898.49,1834.21,1895.52,1835.7,1893.65,1838.18L1893.65,1838.18z"/>
			</g>
			<g>
				<path class="st1" d="M1872.16,2871.49c-7.63,0-14.46-5.33-16.08-13.09c-69.8-335.33-16.15-628.57-15.61-631.49
					c1.68-8.92,10.27-14.8,19.19-13.12c8.92,1.68,14.79,10.27,13.12,19.19c-0.54,2.86-52.93,290.03,15.48,618.71
					c1.85,8.89-3.86,17.59-12.74,19.44C1874.4,2871.38,1873.27,2871.49,1872.16,2871.49z"/>
			</g>
			<g>
				<g class="st3">
					<path class="st1" d="M2474.09,1800.33c0,0,0,0.04-0.04,0.04c-15.43,15.12-31.56,29.4-48.22,42.75
						c-126.58,101.59-285.91,152.45-445.89,145.14c-12.65-0.62-25.3-1.54-37.99-2.82c-34.73-3.66-69.37-10-103.62-19.3
						c-28.34-7.67-56.46-17.28-84-28.91c-5.02-2.12-10-4.28-14.99-6.57c-23.84-10.67-47.25-22.92-70.17-36.76
						c-2.91-1.72-5.77-3.44-8.64-5.24c-10.05-6.35-19.92-12.83-29.49-19.52c-19.66-13.75-38.39-28.38-56.15-43.85
						c-35.92-31.34-67.92-65.93-95.64-103.13c58.97,32.22,130.24,60.2,220.77,80.35c35.39-98.46,78.63-198.42,129.97-296.53
						l557.05,35.48C2420.94,1630.25,2449.94,1716.98,2474.09,1800.33z"/>
				</g>
				<g>
					<path class="st2" d="M1386.9,1461.39c37.28,104.34,100.77,199.8,187.98,275.72c17.79,15.47,36.49,30.13,56.17,43.86
						c9.55,6.71,19.42,13.19,29.48,19.53c30.42,18.94,61.75,35.09,93.78,48.54c27.57,11.66,55.68,21.26,84.02,28.94
						c34.22,9.29,68.88,15.66,103.61,19.29c12.67,1.28,25.34,2.22,38,2.83c231.76,10.58,462.26-100.93,593.58-311.89
						c193.51-310.73,98.44-719.48-212.23-912.98c-59.86-37.23-123.39-63.88-188.3-80.18c-7.57-1.98-15.22-3.74-22.9-5.34
						c-20.51-4.42-41.12-7.85-61.77-10.27c-47.75-5.58-95.74-5.87-143.02-1.1c-47.27,4.71-93.96,14.51-139.07,29.15
						c-14.35,4.65-28.54,9.77-42.59,15.41c-21.04,8.47-41.68,17.96-61.87,28.64C1601.11,704.44,1512.74,784,1448.3,887.53
						C1336.97,1066.27,1321.17,1277.41,1386.9,1461.39z"/>
					<path class="st1" d="M2010.22,1902.46c-10.09,0-20.21-0.23-30.35-0.69c-12.65-0.61-25.46-1.56-38.09-2.84
						c-35.21-3.68-70.16-10.19-103.88-19.34c-28.82-7.81-57.16-17.57-84.23-29.01c-32.32-13.57-63.95-29.95-94.01-48.66
						c-11.03-6.95-20.69-13.35-29.57-19.58c-19.33-13.49-38.27-28.28-56.3-43.97c-85.18-74.16-150.34-169.74-188.45-276.41
						c-68.75-192.43-46.31-402.11,61.55-575.3c62.36-100.19,150.23-181.99,254.12-236.56c19.65-10.39,40.51-20.05,62.02-28.72
						c13.79-5.54,28.15-10.74,42.7-15.45c45.21-14.68,92.12-24.51,139.41-29.23c47.74-4.81,95.98-4.44,143.37,1.1
						c20.62,2.41,41.45,5.88,61.92,10.29c8.19,1.71,15.71,3.46,22.98,5.36c66.22,16.63,129.73,43.67,188.75,80.37
						c310.99,193.7,406.44,604.28,212.77,915.26C2453.42,1784.31,2239.11,1902.45,2010.22,1902.46z M2011.83,576.66
						c-22.14,0-44.3,1.11-66.36,3.33c-47.06,4.69-93.74,14.48-138.73,29.08c-14.47,4.69-28.76,9.86-42.48,15.37
						c-21.4,8.62-42.16,18.23-61.71,28.57c-103.36,54.3-190.8,135.69-252.85,235.38c-107.33,172.32-129.65,380.97-61.25,572.44
						c37.92,106.14,102.76,201.25,187.5,275.03c17.95,15.61,36.8,30.33,56.04,43.75c8.83,6.2,18.45,12.57,29.42,19.49
						c29.9,18.62,61.37,34.91,93.54,48.42c26.93,11.39,55.13,21.1,83.81,28.87c33.55,9.1,68.33,15.58,103.35,19.24
						c12.56,1.27,25.32,2.22,37.91,2.82c10.08,0.46,20.17,0.69,30.2,0.69c227.77,0.01,440.98-117.55,561.89-311.8
						c192.71-309.43,97.73-717.97-211.7-910.71c-58.73-36.52-121.91-63.43-187.82-79.98c-7.23-1.89-14.7-3.63-22.84-5.33
						c-20.39-4.39-41.11-7.84-61.62-10.24C2062.86,578.14,2037.36,576.66,2011.83,576.66z"/>
				</g>
				<g class="st3">
					<path class="st1" d="M2573.52,1588.2c-131.3,210.99-361.84,322.5-593.59,311.89c-12.66-0.59-25.32-1.53-37.97-2.82
						c-34.74-3.62-69.39-10.02-103.61-19.27c-28.34-7.7-56.46-17.29-84.02-28.93c-32.05-13.44-63.37-29.6-93.81-48.54
						c-10.03-6.37-19.9-12.82-29.48-19.52c-19.68-13.75-38.35-28.44-56.16-43.9c-87.2-75.93-150.72-171.36-187.99-275.73
						c-20.49-57.31-33.06-117.31-37.29-178.12c37.84,98.76,99.47,188.94,182.66,261.38c17.77,15.51,36.48,30.15,56.16,43.9
						c9.54,6.71,19.41,13.16,29.48,19.52c30.44,18.94,61.76,35.1,93.77,48.55c27.6,11.64,55.68,21.24,84.02,28.93
						c34.22,9.26,68.91,15.65,103.61,19.27c12.69,1.28,25.35,2.22,38.01,2.81c231.75,10.61,462.25-100.89,593.59-311.89
						c76.65-123.07,107.98-261.51,98.62-395.83C2701.42,1187.23,2687.76,1404.8,2573.52,1588.2z"/>
				</g>
				<g>
					<path class="st1" d="M2010.22,1913.54c-10.26,0-20.55-0.23-30.86-0.7c-12.87-0.62-25.88-1.58-38.7-2.88
						c-35.83-3.75-71.37-10.37-105.66-19.67c-29.3-7.93-58.12-17.86-85.64-29.5c-32.84-13.79-65-30.43-95.55-49.46
						c-11.24-7.08-21.05-13.58-30.08-19.92c-19.62-13.7-38.88-28.73-57.21-44.68c-86.61-75.41-152.86-172.59-191.61-281.05
						c-69.89-195.63-47.08-408.82,62.58-584.89c63.4-101.86,152.74-185.03,258.37-240.51c19.96-10.55,41.18-20.38,63.04-29.18
						c14.03-5.64,28.63-10.93,43.42-15.72c45.96-14.92,93.65-24.92,141.73-29.71c48.51-4.89,97.55-4.51,145.76,1.13
						c20.97,2.46,42.15,5.98,62.97,10.47c8.3,1.73,15.99,3.53,23.44,5.47c67.23,16.88,131.8,44.38,191.8,81.68
						c316.19,196.94,413.23,614.37,216.32,930.54C2460.8,1793.42,2242.93,1913.54,2010.22,1913.54z M2011.83,587.75
						c-21.77,0-43.56,1.09-65.24,3.28c-46.28,4.62-92.18,14.24-136.42,28.6c-14.24,4.61-28.29,9.7-41.76,15.11
						c-21.04,8.47-41.46,17.92-60.67,28.09c-101.65,53.4-187.61,133.42-248.62,231.44c-105.53,169.43-127.48,374.58-60.21,562.85
						l0,0c37.28,104.36,101.03,197.86,184.34,270.4c17.64,15.34,36.18,29.82,55.1,43.02c8.7,6.11,18.17,12.39,28.98,19.2
						c29.36,18.28,60.3,34.29,91.92,47.58c26.5,11.2,54.22,20.75,82.42,28.39c32.99,8.95,67.17,15.32,101.61,18.92
						c12.33,1.25,24.89,2.18,37.28,2.78c9.91,0.45,19.83,0.68,29.69,0.68c223.94,0.01,433.57-115.58,552.46-306.57
						c189.48-304.24,96.1-705.93-208.15-895.43c-57.74-35.91-119.87-62.36-184.66-78.63c-7.15-1.87-14.44-3.57-22.4-5.23
						c-20.11-4.33-40.49-7.72-60.65-10.08C2062.01,589.2,2036.93,587.75,2011.83,587.75z"/>
				</g>
				<g>
					<path class="st1" d="M2010.22,1917.24c-10.32,0-20.66-0.23-31.03-0.71c-12.94-0.62-26.02-1.59-38.91-2.9
						c-36.04-3.77-71.78-10.42-106.26-19.78c-29.46-7.98-58.43-17.96-86.11-29.66c-33.01-13.86-65.34-30.6-96.06-49.73
						c-11.3-7.12-21.18-13.66-30.25-20.03c-19.72-13.76-39.08-28.88-57.51-44.91c-87.08-75.83-153.71-173.54-192.67-282.6l0,0
						c-70.28-196.7-47.34-411.05,62.92-588.09c63.75-102.41,153.58-186.04,259.79-241.83c20.06-10.61,41.4-20.49,63.37-29.34
						c14.11-5.67,28.79-10.99,43.66-15.8c46.21-15,94.16-25.05,142.5-29.87c48.77-4.91,98.08-4.53,146.56,1.13
						c21.08,2.47,42.39,6.01,63.32,10.52c8.33,1.74,16.09,3.55,23.6,5.51c67.57,16.97,132.5,44.61,192.82,82.12
						c317.92,198.02,415.49,617.73,217.51,935.63C2463.26,1796.46,2244.2,1917.24,2010.22,1917.24z M2011.83,591.44
						c-21.65,0-43.31,1.09-64.87,3.26c-46.03,4.59-91.66,14.16-135.65,28.44c-14.16,4.58-28.13,9.64-41.52,15.03
						c-20.92,8.43-41.22,17.82-60.32,27.92c-101.08,53.1-186.55,132.66-247.21,230.12c-104.93,168.47-126.75,372.46-59.87,559.65
						l0,0c37.07,103.76,100.45,196.73,183.29,268.85c17.54,15.26,35.98,29.65,54.79,42.78c8.66,6.08,18.08,12.32,28.84,19.1
						c29.17,18.16,59.94,34.09,91.38,47.29c26.35,11.14,53.91,20.63,81.95,28.23c32.8,8.9,66.79,15.23,101.03,18.81
						c12.26,1.24,24.75,2.17,37.08,2.76c9.85,0.45,19.72,0.67,29.52,0.67c222.65,0.01,431.1-114.92,549.32-304.83
						c188.4-302.51,95.55-701.92-206.97-890.34c-57.41-35.7-119.19-62.01-183.6-78.18c-7.13-1.86-14.36-3.55-22.26-5.2
						c-20.02-4.31-40.28-7.68-60.33-10.03C2061.72,592.89,2036.79,591.44,2011.83,591.44z"/>
				</g>
				<g>
					<path class="st1" d="M1464.08,1612.69c342.33,327.43,893.88,216.88,992.92-241.72c67.38-312.01-186.08-618.88-489.89-664.41
						c-221.12-33.14-451.49,31.24-596.73,360.36c0,0-41.8,155.63-15.17,267.65c26.63,112.02,71.44,216.48,71.44,216.48
						L1464.08,1612.69z"/>
				</g>
				<g>
					<path class="st14" d="M2456.98,1370.97c-99.03,458.6-650.6,569.14-992.91,241.74l-7.58-12.5
						c410.6,140.59,870.41-47.23,979.18-509.04C2468.04,1178.89,2477.76,1274.68,2456.98,1370.97z"/>
				</g>
				<g>
					<path class="st1" d="M1920.89,1885.66c-56.58,0-113.9-6.81-170.47-20.64c-0.84-0.21-1.67-0.48-2.47-0.81
						c-33.04-13.88-65.38-30.62-96.1-49.74c-11.3-7.12-21.17-13.66-30.24-20.03c-19.72-13.76-39.08-28.88-57.51-44.91
						c-87.08-75.83-153.71-173.54-192.67-282.6l0,0c-70.28-196.7-47.34-411.05,62.92-588.09
						c63.75-102.41,153.58-186.04,259.79-241.83c1.01-0.53,2.07-0.95,3.15-1.26c84.14-23.89,178.24-28.31,279.69-13.1
						c180.68,27.08,353.56,137.33,462.46,294.93c100.06,144.81,136.22,312.3,101.81,471.62
						c-37.42,173.15-131.93,311.45-273.33,399.92C2166.29,1852.71,2045.37,1885.65,1920.89,1885.66z M1759.48,1833.39
						c172.12,41.73,351,15.46,491-72.15c133.7-83.66,223.13-214.72,258.63-379c32.48-150.34-1.87-308.73-96.72-445.99
						C2308.56,786,2143.97,680.91,1972.1,655.16c-96.13-14.41-185-10.45-264.19,11.75c-100.38,53.07-185.3,132.33-245.66,229.3
						c-104.93,168.47-126.75,372.46-59.87,559.65l0,0c37.07,103.76,100.45,196.73,183.29,268.85
						c17.54,15.26,35.98,29.65,54.79,42.78c8.66,6.08,18.08,12.32,28.84,19.1C1698.1,1804.53,1728.46,1820.29,1759.48,1833.39z"/>
				</g>
				<g>
					<path class="st1" d="M1919.99,1817.86c-167.42,0-336.03-67.76-467.27-193.29c-1.04-0.99-1.94-2.12-2.69-3.35l-37.44-61.64
						c-0.4-0.66-0.76-1.35-1.06-2.05c-1.85-4.32-45.67-107.05-72.32-219.16c-27.28-114.75,13.53-269.2,15.28-275.72
						c0.21-0.81,0.5-1.61,0.83-2.38c126.9-287.56,333.51-412.05,614.21-369.98c161.24,24.16,315.5,122.53,412.66,263.14
						c89.31,129.25,121.58,278.75,90.86,420.99c-44.36,205.39-181.54,357.44-376.36,417.17
						C2039.13,1809.26,1979.62,1817.86,1919.99,1817.86z M1477,1602.3c169.28,160.92,402.84,221.41,610.07,157.88
						c183.11-56.14,312.09-199.26,353.86-392.68c28.78-133.26-1.68-273.67-85.77-395.36c-92.09-133.27-238.07-226.48-390.49-249.32
						c-263.78-39.52-458.5,78.06-578.73,349.53c-3.69,14.38-38.9,156.81-14.75,258.42c24.58,103.41,65.43,201.66,70.11,212.77
						L1477,1602.3z"/>
				</g>
				<g>
					
						<ellipse transform="matrix(0.144 -0.9896 0.9896 0.144 843.2714 3733.1907)" class="st2" cx="2579.49" cy="1379.17" rx="237.03" ry="172.23"/>
					<path class="st1" d="M2563.48,1631.47c-2.16,0-4.33-0.05-6.5-0.15c-41.38-1.88-79.06-21.03-108.98-55.37
						c-43.88-50.37-64.77-125.5-57.32-206.14c12.8-138.6,107.45-247.57,211.33-242.8c41.38,1.88,79.06,21.03,108.98,55.38
						c43.88,50.37,64.77,125.5,57.32,206.14C2755.78,1524.22,2664.64,1631.47,2563.48,1631.47z M2595.36,1159.74
						c-84.43,0-160.96,94.14-171.95,213.1c-6.52,70.68,11.93,138.53,49.38,181.52c23.87,27.4,53.5,42.66,85.68,44.13
						c86.46,3.97,165.9-91.61,177.1-212.98l16.37,1.51l-16.37-1.51c6.52-70.68-11.93-138.53-49.38-181.52
						c-23.87-27.41-53.5-42.67-85.68-44.13C2598.79,1159.78,2597.07,1159.74,2595.36,1159.74z"/>
				</g>
				<g>
					
						<ellipse transform="matrix(0.1778 -0.9841 0.9841 0.1778 783.2263 3745.3223)" class="st2" cx="2632.95" cy="1403.95" rx="188.12" ry="140.33"/>
					<path class="st1" d="M2617.98,1592.57c-20.72,0-40.73-6.02-59.09-17.93c-67.85-44.02-89.99-156.36-49.35-250.41
						c22.75-52.67,61.04-90.51,105.05-103.82c32.39-9.8,64.34-5.35,92.41,12.86c67.85,44.02,89.99,156.35,49.35,250.41
						c-22.75,52.67-61.05,90.51-105.06,103.82C2640.1,1590.88,2628.94,1592.57,2617.98,1592.57z M2647.89,1218.78
						c-10.62,0-21.43,1.63-32.29,4.92c-43.04,13.02-80.55,50.16-102.9,101.89c-40,92.59-18.44,203.02,48.07,246.16
						c27.19,17.64,58.14,21.94,89.54,12.45c43.04-13.02,80.55-50.16,102.9-101.89c40-92.59,18.44-203.02-48.07-246.16
						C2687.36,1224.61,2667.96,1218.78,2647.89,1218.78z"/>
				</g>
				<g class="st3">
					<path class="st1" d="M2493.62,1471.11c-5.47-35.22-1.31-72.06,10.23-105.96c19.24,79.25,86.22,117.05,155.58,84.84
						c44.83-20.79,80.32-66.08,98.14-118.54c1.25,4.99,2.25,10.21,3.09,15.55c13.9,89.69-34.61,190.18-108.36,224.45
						C2578.54,1605.71,2507.52,1560.74,2493.62,1471.11z"/>
				</g>
				<g>
					<path class="st1" d="M2618.91,1607.76c-1.3,0-2.6-0.02-3.9-0.08c-30.74-1.15-58.9-15.38-81.44-41.15
						c-35.44-40.52-52.68-105.52-46.09-173.87c11.02-114.44,85.18-205.08,165.76-202.08c30.74,1.15,58.9,15.38,81.44,41.14
						c35.44,40.52,52.68,105.52,46.1,173.87l-16.36-1.57l16.36,1.57C2769.94,1518.19,2697.79,1607.76,2618.91,1607.76z
						 M2649.16,1223.39c-62.22,0-119.72,76.46-128.96,172.43c-5.73,59.51,8.52,115.24,38.12,149.08
						c16.43,18.78,36.46,29.13,57.92,29.93c0.95,0.04,1.9,0.05,2.85,0.05c62.22,0.01,119.72-76.46,128.96-172.43l0,0
						c5.73-59.51-8.53-115.24-38.13-149.08c-16.42-18.78-36.45-29.13-57.92-29.93C2651.06,1223.41,2650.11,1223.39,2649.16,1223.39z
						"/>
				</g>
				<g class="st13">
					<path class="st2" d="M2105.9,845.27c0,0-300.02-25.58-489.12,121.01c-0.2,0.15-0.4,0.31-0.6,0.46
						c-39.77,30.89-70.47,71.99-89.17,118.74c-24.74,61.83-32.72,108.06-38.19,149.03c-16.56,124.61-1,186.1-1,186.1
						c-62.13-75.26-92.14-155.31-79.38-259.25c1.29-10.24,2.99-20.76,5.08-31.49c0.47-2.48,1-4.92,1.56-7.37
						c-0.05-0.03-0.02-0.08,0.05-0.14c5.76-21.45,14.39-49.35,26.76-80.01c37.25-92.49,108.2-210.15,235.99-252.14
						C1916.84,711.69,2117.89,833.62,2105.9,845.27z"/>
				</g>
				<g class="st13">
					
						<ellipse transform="matrix(0.9917 -0.1289 0.1289 0.9917 -133.2647 304.7397)" class="st2" cx="2286.79" cy="1181.54" rx="88.59" ry="103.24"/>
				</g>
				<g class="st13">
					
						<ellipse transform="matrix(0.9772 -0.2122 0.2122 0.9772 -237.5539 521.5057)" class="st2" cx="2310.98" cy="1367.55" rx="36.58" ry="42.63"/>
				</g>
			</g>
			<g>
				<path class="st1" d="M1854.33,2260.15c-4.7,0-9.28-2.02-12.46-5.71l-142.18-165.11c-3.73-4.33-4.94-10.28-3.21-15.72l17.2-53.96
					l-44.08-24.07c-5.28-2.88-8.56-8.42-8.56-14.43V1810.7c0-9.08,7.36-16.44,16.44-16.44s16.44,7.36,16.44,16.44v160.7l47.42,25.9
					c6.91,3.77,10.18,11.92,7.79,19.42l-18.53,58.12l128.92,149.7l271.64-93.53l10.74-84.32c0.8-6.26,5.11-11.51,11.09-13.51
					l182.68-61.18l8.26-166.33c0.45-9.07,8.16-16.1,17.23-15.6c9.07,0.45,16.05,8.17,15.6,17.23l-8.81,177.54
					c-0.33,6.76-4.78,12.62-11.2,14.77l-183.54,61.47l-10.73,84.23c-0.79,6.21-5.04,11.43-10.96,13.46l-291.84,100.48
					C1857.93,2259.85,1856.12,2260.15,1854.33,2260.15z"/>
			</g>
			<g>
				<polygon class="st11" points="1942.58,1954.97 1958.81,2120.64 1856.63,2229.95 1819.42,2090.92 1871.35,1948.63 				"/>
			</g>
			<g>
				<path class="st1" d="M1856.63,2246.39c-1.33,0-2.67-0.16-3.99-0.49c-5.79-1.45-10.35-5.93-11.89-11.7l-37.22-139.03
					c-0.87-3.26-0.72-6.71,0.43-9.89l51.93-142.29c2.55-6.99,9.47-11.39,16.9-10.74l71.23,6.35c7.87,0.7,14.13,6.91,14.9,14.77
					l16.23,165.66c0.46,4.7-1.13,9.38-4.35,12.83l-102.17,109.31C1865.5,2244.54,1861.13,2246.39,1856.63,2246.39z M1836.64,2091.68
					l28.21,105.4l76.87-82.24l-14.17-144.7l-45.08-4.02L1836.64,2091.68z"/>
			</g>
			<g>
				<path class="st1" d="M1988.94,2024.81c-5.03,0-9.95-2.31-13.15-6.56l-42.69-56.79c-5.45-7.26-3.99-17.56,3.26-23.02
					c7.26-5.46,17.56-3.99,23.02,3.26l34.34,45.68l136.22-70.44c8.06-4.16,17.98-1.01,22.15,7.05c4.17,8.06,1.02,17.98-7.05,22.15
					l-148.55,76.82C1994.08,2024.22,1991.49,2024.81,1988.94,2024.81z"/>
			</g>
			<g>
				<path class="st1" d="M1828.04,1997.11c-4.4,0-8.75-1.77-11.95-5.15l-53.2-56.32c-6.24-6.6-5.94-17,0.66-23.24
					c6.61-6.23,17.01-5.93,23.24,0.66l44.01,46.58l29.44-18.19c7.73-4.77,17.85-2.38,22.63,5.34c4.77,7.72,2.38,17.85-5.34,22.62
					l-40.83,25.23C1834,1996.3,1831.01,1997.11,1828.04,1997.11z"/>
			</g>
			<g>
				
					<ellipse transform="matrix(0.1602 -0.9871 0.9871 0.1602 -695.8506 3829.928)" class="st1" cx="1902.84" cy="2323.9" rx="25.71" ry="25.71"/>
			</g>
			<g>
				<circle class="st1" cx="1902.84" cy="2462.16" r="25.71"/>
			</g>
			<g>
				<circle class="st1" cx="1907.14" cy="2604.95" r="25.71"/>
			</g>
		</g>
	</g>
</g>
</svg>
